<svg id="Layer_1" data-name="Layer 1" xmlns="http://www.w3.org/2000/svg" viewBox="0 0 553 569.5"><defs><style>.cls-1{fill:#fff;}</style></defs><title>battery</title><path class="cls-1" d="M466.05,54.7H436.48V18.26A11.27,11.27,0,0,0,425.22,7H310A11.27,11.27,0,0,0,298.7,18.26V54.7h-27V18.26A11.27,11.27,0,0,0,260.46,7H145.2a11.28,11.28,0,0,0-11.27,11.26V54.7H98.88A15.93,15.93,0,0,0,83,70.61V551.09A15.93,15.93,0,0,0,98.88,567H466.05A15.93,15.93,0,0,0,482,551.09V70.61A15.93,15.93,0,0,0,466.05,54.7Zm-311.53-.45V27.59h96.61V54.25ZM319.29,27.59H415.9V54.25H319.29Zm142.08,47.7V546.41H103.56V75.29Z"/><path class="cls-1" d="M139.15,203H420A12.1,12.1,0,0,0,432,191V128A12.09,12.09,0,0,0,420,115.94H139.15A12.09,12.09,0,0,0,127.07,128V191A12.1,12.1,0,0,0,139.15,203Zm8.51-20.59V136.52h263.8v45.93Z"/><path class="cls-1" d="M139.15,304H420A12.09,12.09,0,0,0,432,291.87V228.94A12.09,12.09,0,0,0,420,216.86H139.15a12.09,12.09,0,0,0-12.08,12.08v62.93A12.09,12.09,0,0,0,139.15,304Zm8.51-20.58V237.44h263.8v45.93Z"/><path class="cls-1" d="M139.15,404.87H420A12.09,12.09,0,0,0,432,392.79V329.86A12.1,12.1,0,0,0,420,317.77H139.15a12.1,12.1,0,0,0-12.08,12.09v62.93A12.09,12.09,0,0,0,139.15,404.87Zm8.51-20.58V338.36h263.8v45.93Z"/><path class="cls-1" d="M139.15,505.79H420A12.09,12.09,0,0,0,432,493.71V430.78A12.1,12.1,0,0,0,420,418.69H139.15a12.1,12.1,0,0,0-12.08,12.09v62.93A12.09,12.09,0,0,0,139.15,505.79Zm8.51-20.58V439.28h263.8v45.93Z"/></svg>