<?xml version="1.0" encoding="utf-8"?>
<!-- Generator: Adobe Illustrator 21.0.2, SVG Export Plug-In . SVG Version: 6.00 Build 0)  -->
<!DOCTYPE svg PUBLIC "-//W3C//DTD SVG 1.1//EN" "http://www.w3.org/Graphics/SVG/1.1/DTD/svg11.dtd">
<svg version="1.1" id="Layer_1" xmlns="http://www.w3.org/2000/svg" xmlns:xlink="http://www.w3.org/1999/xlink" x="0px" y="0px"
	 viewBox="0 0 134.5 100.1" style="enable-background:new 0 0 134.5 100.1;" xml:space="preserve">
<style type="text/css">
	.st0{fill:#FFFFFF;}
</style>
<g>
	<path class="st0" d="M120.4,38.1c-0.4-1.3-1.2-2.5-2.1-3.6c-0.9-1-1.9-1.9-3.2-2.6c-2.1-1.2-4.5-2.1-7.5-2.7
		c-1.3-0.2-2.6-0.4-3.9-0.5c-0.2,0-0.5,0-0.7,0l-0.3,0l-1,0l-0.5,0l-0.3,0l-1.2,0c-5.2,0.1-10.5,1.2-15.6,3.2
		c-4.8,1.9-9.5,4.5-13.7,7.9c-1.1,0.9-2.2,1.9-3.3,2.8c-1.1-1-2.2-1.9-3.3-2.8c-4.3-3.4-8.9-6-13.7-7.9c-5-1.9-10.4-3-15.6-3.2
		l-1.2,0l-0.3,0l-0.5,0l-1,0l-0.3,0c-0.2,0-0.5,0-0.7,0c-1.3,0.1-2.7,0.2-3.9,0.5c-3,0.5-5.4,1.4-7.5,2.7c-1.2,0.7-2.3,1.6-3.2,2.6
		c-0.9,1.1-1.7,2.3-2.1,3.6c-0.4,1.3-0.6,2.7-0.5,4c0.1,1.2,0.4,2.5,0.9,3.8c0.9,2.1,2.2,4,4.1,5.8c1.3,1.2,2.8,2.3,4.6,3.3
		c-0.7,0.5-1.3,1.1-1.9,1.8c-0.6,0.7-1.4,1.7-1.9,3.1c-0.3,0.8-0.4,1.5-0.5,2.2c0,0.8,0.1,1.7,0.3,2.5c0.2,0.8,0.6,1.6,1.1,2.3
		c0.2,0.4,0.5,0.7,0.8,1c0.1,0.1,0.2,0.2,0.3,0.3l0.1,0.1l0.2,0.2c0.1,0.1,0.1,0.1,0.3,0.3l0.3,0.2c0.1,0.1,0.1,0.1,0.2,0.1l0.1,0.1
		c0.2,0.1,0.3,0.2,0.5,0.3l0.1,0c0.4,0.2,0.8,0.5,1.2,0.6c0.7,0.4,1.5,0.6,2.4,0.9c1.5,0.4,3.2,0.6,5,0.7c0.4,0,0.7,0,1.1,0
		c1.2,0,2.5-0.1,3.8-0.2c1.4-0.1,2.9-0.4,4.6-0.7c1.4-0.3,2.8-0.7,4.2-1.1c1.4-0.5,2.6-0.9,3.7-1.4c1.1-0.5,2.1-1,3-1.5
		c0.2-0.1,0.5-0.3,0.7-0.4c-0.3,1.3-0.5,2.6-0.7,3.8c0,0.5-0.1,1.1-0.1,1.7c0,0.2,0,0.4,0,0.5l0,0.6l0,0.9c0,0.3,0,0.7,0,1l0.1,1.5
		c0.4,4,1.3,7.7,2.9,10.8c1.7,3.4,3.8,5.7,5.3,7c1.5,1.3,3.1,2.3,4.8,3.1c0.5,0.2,1,0.4,1.4,0.6c0.1,0,0.2,0.1,0.3,0.1
		c0.2,0.1,0.4,0.1,0.7,0.1c0,0,0,0,0,0c0,0,0,0,0,0c0.2,0,0.5-0.1,0.7-0.2c0.1,0,0.2-0.1,0.3-0.1c0.5-0.2,0.9-0.4,1.4-0.6
		c1.7-0.8,3.3-1.8,4.8-3.1c1.5-1.3,3.6-3.5,5.3-7c1.5-3.1,2.5-6.8,2.9-10.8l0.1-1.5c0-0.3,0-0.7,0-1l0-0.9l0-0.6c0-0.2,0-0.3,0-0.6
		c0-0.6-0.1-1.2-0.1-1.7c-0.1-1.2-0.3-2.5-0.7-3.8c0.2,0.1,0.4,0.3,0.7,0.4c0.9,0.5,1.9,1,3,1.5c1,0.5,2.2,0.9,3.7,1.4
		c1.4,0.4,2.8,0.8,4.2,1.1c1.7,0.4,3.2,0.6,4.6,0.7c1.3,0.1,2.6,0.2,3.8,0.2c0.4,0,0.7,0,1.1,0c1.8-0.1,3.4-0.3,5-0.7
		c0.9-0.2,1.7-0.5,2.4-0.9c0.4-0.2,0.8-0.4,1.2-0.6l0.1,0c0.2-0.1,0.3-0.2,0.5-0.3l0.1-0.1c0.1,0,0.1-0.1,0.2-0.1l0.3-0.2
		c0.1-0.1,0.2-0.2,0.3-0.3l0.2-0.2l0.1-0.1c0.1-0.1,0.2-0.2,0.3-0.3c0.3-0.3,0.5-0.6,0.8-1c0.5-0.7,0.9-1.5,1.1-2.3
		c0.2-0.8,0.3-1.7,0.3-2.5c0-0.7-0.2-1.5-0.5-2.2c-0.5-1.4-1.4-2.5-1.9-3.1c-0.6-0.6-1.2-1.2-1.9-1.8c1.8-1,3.3-2,4.6-3.3
		c1.9-1.7,3.2-3.7,4.1-5.8c0.5-1.3,0.8-2.5,0.9-3.8C121.1,40.7,120.9,39.4,120.4,38.1z M77.4,83.6l-0.2,0.1l0,0
		c-0.1,0.1-0.3,0.2-0.5,0.3c-0.2,0.1-0.5,0.3-0.9,0.5c-0.4,0.2-0.9,0.4-1.3,0.5c-0.5,0.2-1.1,0.4-1.6,0.5c-0.3,0.1-0.6,0.2-0.9,0.2
		c-0.3,0.1-0.7,0.1-0.9,0.2c-0.4,0.1-0.7,0.1-1,0.1l-0.1,0c-0.3,0-0.6,0.1-0.9,0.1c-0.6,0.1-1.3,0.1-1.9,0.1l-0.2,0l-1.1,0
		c-0.2,0-0.4,0-0.7,0c-0.1,0-0.2,0-0.4,0c-0.3,0-0.6-0.1-0.9-0.1l-0.1,0c-0.3,0-0.6-0.1-1-0.1c-0.3,0-0.6-0.1-0.9-0.2
		c-0.3-0.1-0.6-0.1-0.9-0.2c-0.5-0.1-1-0.3-1.6-0.5c-0.4-0.1-0.9-0.3-1.3-0.5c-0.4-0.2-0.7-0.4-0.9-0.5c0,0,0,0,0,0
		c-0.7-1.9-1.3-4.1-1.5-6.5c0.1,0,0.2,0.1,0.3,0.1c0.3,0.1,0.5,0.2,0.8,0.3c0.3,0.1,0.6,0.2,0.9,0.3c0.3,0.1,0.7,0.2,1,0.3
		c0.3,0.1,0.6,0.2,1.1,0.2c0.4,0.1,0.8,0.2,1.1,0.2c0.5,0.1,0.8,0.1,1.2,0.2c0.5,0.1,0.9,0.1,1.2,0.1l0.4,0c0.3,0,0.6,0.1,0.9,0.1
		c0.1,0,0.3,0,0.5,0c0.3,0,0.6,0,0.9,0l1.3,0l0.1,0c0.8,0,1.7,0,2.5-0.1c0.3,0,0.6,0,0.9-0.1l0.4,0c0.4,0,0.8-0.1,1.2-0.1
		c0.4,0,0.7-0.1,1.2-0.2c0.4-0.1,0.8-0.1,1.1-0.2c0.4-0.1,0.8-0.2,1.1-0.2c0.3-0.1,0.7-0.2,1-0.3c0.3-0.1,0.6-0.2,0.9-0.3
		c0.3-0.1,0.6-0.2,0.8-0.3c0.1,0,0.2-0.1,0.3-0.1c-0.3,2.1-0.7,4.1-1.3,5.9C77.5,83.6,77.4,83.6,77.4,83.6z M77.7,67.2
		c0.2-0.1,0.4-0.1,0.6-0.2c0.3,1.2,0.5,2.5,0.7,3.7l0.1,0.7c0,0.1,0,0.3,0,0.4l0,0.3c0,0.1,0,0.3,0,0.5l0,0.6l0,0.2c0,0,0,0,0,0
		l-0.2,0.1l0,0c-0.1,0.1-0.3,0.2-0.6,0.4c-0.3,0.2-0.6,0.4-1.1,0.5c-0.5,0.2-1,0.4-1.5,0.6c-0.6,0.2-1.2,0.4-1.8,0.6
		c-0.3,0.1-0.7,0.2-1,0.2c-0.4,0.1-0.7,0.2-1.1,0.2c-0.4,0.1-0.8,0.1-1.1,0.2l-0.2,0c-0.3,0-0.7,0.1-1,0.1c-0.7,0.1-1.5,0.1-2.2,0.1
		l-0.2,0l-1.2,0c-0.2,0-0.4,0-0.6,0l-0.6,0c-0.3,0-0.7-0.1-1-0.1l-0.2,0c-0.3,0-0.7-0.1-1.1-0.2c-0.3-0.1-0.7-0.1-1.1-0.2
		c-0.3-0.1-0.7-0.2-1-0.2c-0.6-0.2-1.2-0.3-1.8-0.6c-0.5-0.2-1-0.4-1.5-0.6c-0.4-0.2-0.8-0.4-1.1-0.5c-0.3-0.1-0.5-0.3-0.6-0.4
		l-0.2-0.1l0,0c0,0,0,0,0,0l0-0.2l0-0.6c0-0.2,0-0.4,0-0.5l0-0.3c0-0.1,0-0.3,0-0.4l0.1-0.7c0.1-1.2,0.4-2.5,0.7-3.7
		c0.2,0.1,0.4,0.1,0.6,0.2c0.2,0.1,0.5,0.1,0.8,0.2c0.3,0.1,0.6,0.2,0.9,0.2c0.3,0.1,0.6,0.1,0.9,0.2c0.3,0.1,0.7,0.1,1,0.2
		c0.3,0.1,0.7,0.1,1.1,0.2c0.4,0.1,0.7,0.1,1.1,0.1c0.4,0.1,0.8,0.1,1.1,0.1l0.4,0c0.3,0,0.5,0,0.8,0.1c0.1,0,0.3,0,0.4,0
		c0.3,0,0.5,0,0.8,0l1.2,0l0.1,0c0.8,0,1.6,0,2.4-0.1c0.3,0,0.6,0,0.8-0.1l0.4,0c0.4,0,0.7-0.1,1.1-0.1c0.4,0,0.7-0.1,1.1-0.1
		c0.4-0.1,0.7-0.1,1.1-0.2c0.3-0.1,0.7-0.1,1-0.2c0.3-0.1,0.6-0.1,0.9-0.2c0.3-0.1,0.6-0.1,0.9-0.2C77.2,67.4,77.5,67.3,77.7,67.2z
		 M76.4,63.7c-0.4,0.2-0.9,0.4-1.3,0.6c-0.6,0.2-1.1,0.4-1.7,0.5c-0.3,0.1-0.6,0.2-0.9,0.2c-0.3,0.1-0.6,0.1-0.9,0.2l0,0
		c-0.4,0.1-0.7,0.1-1,0.2l-0.1,0c-0.3,0-0.6,0.1-1,0.1c-0.7,0.1-1.3,0.1-2,0.1l-0.2,0l-1.1,0c-0.3,0-0.5,0-0.7,0c-0.1,0-0.3,0-0.4,0
		c-0.3,0-0.6-0.1-1-0.1l-0.1,0c-0.3,0-0.7-0.1-1-0.2l0,0c-0.3-0.1-0.6-0.1-0.9-0.2c-0.3-0.1-0.6-0.1-0.9-0.2
		c-0.5-0.1-1.1-0.3-1.7-0.5c-0.4-0.2-0.9-0.3-1.3-0.6c-0.3-0.1-0.5-0.3-0.7-0.4c0.7-2,1.7-4,2.8-5.9c0,0,0.1,0,0.1,0
		c0.2,0.1,0.5,0.2,0.8,0.2c0.3,0.1,0.6,0.1,1,0.2c0.3,0.1,0.7,0.1,1.2,0.2c0.5,0.1,0.9,0.1,1.3,0.2c0.3,0,0.7,0.1,1,0.1l0.4,0l0.2,0
		c0.2,0,0.3,0,0.5,0l0.7,0l0,0c0.5,0,0.9,0,1.4,0l0.3,0c0.4,0,0.7,0,1-0.1c0.4,0,0.8-0.1,1.3-0.2c0.5-0.1,0.8-0.1,1.2-0.2
		c0.4-0.1,0.7-0.2,1-0.2c0.3-0.1,0.6-0.2,0.8-0.2c0,0,0.1,0,0.1,0c1.1,2,2.1,4,2.8,5.9C76.9,63.5,76.7,63.6,76.4,63.7z M72.1,54.1
		c-0.2,0.1-0.5,0.2-0.7,0.3c-0.3,0.1-0.6,0.2-0.9,0.3c-0.3,0.1-0.7,0.2-1,0.2c-0.2,0-0.4,0.1-0.6,0.1c-0.2,0-0.4,0.1-0.6,0.1
		c-0.3,0-0.7,0-1,0.1l-0.1,0l-0.6,0c-0.1,0-0.3,0-0.4,0c-0.1,0-0.1,0-0.2,0c-0.2,0-0.4,0-0.6-0.1c-0.2,0-0.4-0.1-0.5-0.1
		c-0.4-0.1-0.7-0.2-1-0.2c-0.3-0.1-0.6-0.2-0.9-0.3c-0.2-0.1-0.5-0.2-0.7-0.3c-0.1,0-0.1-0.1-0.1-0.1c0.2-0.3,0.5-0.7,0.7-1
		c1.3-1.8,2.8-3.6,4.3-5.2c1.6,1.6,3,3.4,4.3,5.2c0.2,0.3,0.5,0.7,0.7,1C72.2,54.1,72.2,54.1,72.1,54.1z M47.8,65.8
		c-1.2,0.4-2.3,0.8-3.5,1.1c-1.4,0.4-2.7,0.7-4,0.9c-1.4,0.2-2.8,0.4-4.3,0.6c-1,0.1-2,0.1-2.9,0.1c-0.5,0-1,0-1.5,0
		c-1.6-0.1-3-0.3-4.2-0.6c-0.7-0.2-1.3-0.4-1.8-0.7c-0.3-0.1-0.5-0.3-0.8-0.4l-0.1-0.1c-0.1-0.1-0.2-0.1-0.3-0.2l-0.1,0
		c0,0-0.1-0.1-0.1-0.1l-0.1-0.1c0,0-0.1-0.1-0.3-0.2c0,0-0.1-0.1-0.1-0.1l-0.1-0.1c-0.1-0.1-0.1-0.1-0.2-0.2
		c-0.2-0.2-0.4-0.4-0.5-0.7c-0.3-0.4-0.6-0.9-0.7-1.4c-0.3-0.9-0.3-1.7-0.1-2.7c0.3-1,0.8-1.8,1.2-2.4c0.4-0.6,0.9-1.2,1.4-1.7
		c0.3-0.3,0.5-0.5,0.7-0.7c1.2,0.5,2.4,0.9,3.7,1.2c1.7,0.4,3.4,0.7,5.1,0.8c0.9,0.1,1.9,0.1,2.9,0.1c1.8,0,3.6-0.1,5.5-0.4
		c2.3-0.3,4.1-0.8,5.2-1.1c0.6-0.2,1-0.3,1.3-0.4l0.5-0.1c0.3-0.1,0.5-0.4,0.4-0.7c0-0.3-0.3-0.5-0.6-0.5c0,0-0.1,0-0.1,0L49,55.1
		c-0.3,0.1-0.8,0.1-1.3,0.2c-1.3,0.2-3,0.4-5.1,0.5c-0.8,0-1.6,0.1-2.4,0.1c-1.9,0-3.7-0.1-5.5-0.4c-1.7-0.3-3.2-0.6-4.7-1
		c-0.8-0.2-1.6-0.5-2.4-0.8c-0.8-0.3-1.7-0.7-2.4-1.1c-1.7-0.9-3.2-2-4.5-3.2c-1.5-1.4-2.6-3-3.3-4.7c-0.7-1.9-0.8-3.8-0.2-5.5
		c0.6-1.7,2-3.2,3.9-4.4c1.7-1,3.8-1.7,6.3-2.1c1.1-0.2,2.3-0.3,3.5-0.4c0.2,0,0.4,0,0.6,0l0.3,0l0.9,0l0.5,0l0.2,0l1.1,0
		c4.8,0.2,9.7,1.2,14.4,3c4.5,1.8,8.8,4.3,12.8,7.4c1,0.8,2,1.7,3,2.5c-1.7,1.8-3.3,3.7-4.7,5.6c-2.8,3.8-4.9,7.8-6.3,11.9
		c-0.3,0.2-0.6,0.5-1,0.7C51.4,64.3,49.7,65.1,47.8,65.8z M72.1,91.8c-1.2,1.1-2.5,2-3.9,2.6c-0.3,0.2-0.7,0.3-1,0.4
		c-0.3-0.1-0.6-0.3-1-0.4c-1.4-0.7-2.7-1.5-3.9-2.6c-1.2-1.1-2.3-2.3-3.2-3.7c0.1,0,0.1,0,0.2,0c0.3,0.1,0.6,0.1,1,0.2
		c0.3,0.1,0.6,0.1,1,0.2c0.4,0.1,0.7,0.1,1.1,0.2c0.4,0.1,0.8,0.1,1.1,0.1l0.3,0c0.3,0,0.5,0.1,0.8,0.1c0.1,0,0.3,0,0.4,0
		c0.3,0,0.5,0,0.8,0l1.1,0l0,0c0.7,0,1.5,0,2.2-0.1c0.3,0,0.5,0,0.8-0.1l0.3,0c0.3,0,0.7-0.1,1.1-0.1c0.3,0,0.7-0.1,1.1-0.2
		c0.4-0.1,0.7-0.1,1-0.2c0.3-0.1,0.6-0.1,1-0.2c0.3-0.1,0.6-0.1,0.9-0.2c0,0,0.1,0,0.1,0C74.5,89.4,73.4,90.7,72.1,91.8z
		 M117.1,44.7c-0.6,1.6-1.8,3.3-3.3,4.7c-1.3,1.2-2.8,2.3-4.5,3.2c-0.8,0.4-1.6,0.8-2.4,1.1c-0.8,0.3-1.6,0.6-2.4,0.8
		c-1.4,0.4-3,0.7-4.7,1c-1.8,0.2-3.6,0.4-5.5,0.4c-0.8,0-1.6,0-2.4-0.1c-2.1-0.1-3.8-0.3-5.1-0.5c-0.6-0.1-1-0.2-1.3-0.2L85,55
		c0,0-0.1,0-0.1,0c-0.3,0-0.5,0.2-0.6,0.4c0,0.2,0,0.3,0,0.5c0.1,0.1,0.2,0.2,0.4,0.3l0.5,0.1c0.3,0.1,0.7,0.2,1.3,0.4
		c1.1,0.3,2.9,0.8,5.2,1.1c1.9,0.3,3.7,0.4,5.5,0.4c1,0,1.9,0,2.9-0.1c1.7-0.1,3.4-0.4,5.1-0.8c1.3-0.3,2.5-0.7,3.7-1.2
		c0.2,0.2,0.5,0.4,0.7,0.7c0.5,0.5,1,1.1,1.4,1.7c0.4,0.5,0.9,1.4,1.2,2.4c0.3,1,0.2,1.8-0.1,2.7c-0.2,0.5-0.4,0.9-0.7,1.4
		c-0.2,0.2-0.4,0.5-0.5,0.7c-0.1,0.1-0.1,0.2-0.2,0.2l-0.1,0.1c0,0,0,0-0.1,0.1c-0.1,0.1-0.2,0.2-0.2,0.2l-0.1,0.1
		c0,0-0.1,0.1-0.1,0.1l-0.1,0c-0.1,0.1-0.2,0.1-0.3,0.2l-0.1,0.1c-0.3,0.2-0.5,0.3-0.8,0.4c-0.5,0.3-1.2,0.5-1.8,0.7
		c-1.2,0.3-2.6,0.5-4.2,0.6c-0.5,0-1,0-1.5,0h0c-0.9,0-1.9,0-2.9-0.1c-1.5-0.1-2.9-0.3-4.3-0.6c-1.2-0.2-2.5-0.5-4-0.9
		c-1.1-0.3-2.3-0.7-3.5-1.1c-1.9-0.7-3.6-1.5-4.8-2.3c-0.4-0.3-0.8-0.5-1-0.7c-1.4-4.1-3.6-8.1-6.3-11.9c-1.4-2-3-3.8-4.7-5.6
		c1-0.9,1.9-1.7,3-2.5c3.9-3.1,8.2-5.6,12.8-7.4c4.7-1.9,9.5-2.9,14.4-3l1.1,0l0.2,0l0.5,0l0.9,0l0.3,0c0.2,0,0.4,0,0.6,0
		c1.2,0.1,2.4,0.2,3.5,0.4c2.5,0.4,4.6,1.1,6.3,2.1c1.9,1.1,3.3,2.7,3.9,4.4C117.9,40.8,117.8,42.8,117.1,44.7z"/>
	<path class="st0" d="M52.3,26.7c0,0.4,0.1,0.8,0.2,1.2c0.2,0.8,0.7,1.5,1.2,2.1c0.5,0.5,1.1,0.9,1.7,1.3c1.3,0.7,2.5,1,3.6,1.2
		c2.4,0.5,4.7,0.6,6.6,0.7c0.6,0,1.2,0,1.7,0c1.4,0,2.7,0,4.1-0.1c2.1-0.2,3.7-0.5,5.1-0.9c1.7-0.5,3-1.2,3.9-2.1
		c0.6-0.6,0.9-1.2,1.1-1.5c0.2-0.5,0.4-0.9,0.4-1.4c0-0.2,0-0.3,0.1-0.5l0-0.2l0-0.5l0-0.3c0-0.2,0-0.4,0-0.7
		c-0.1-0.9-0.2-1.7-0.5-2.6c-0.3-1.3-0.8-2.6-1.4-3.8c-0.8-1.6-1.9-3-3.1-4.2c-0.6-0.5-1.2-1-1.9-1.5c0-0.1,0.1-0.3,0.1-0.4
		c0.2-0.5,0.3-1,0.5-1.5l0.9-2.2C77,8.4,77.3,8,77.5,7.6c0.1-0.2,0.2-0.4,0.3-0.7l0.4-0.8c0.1-0.2,0.2-0.3,0.3-0.5
		c0.1-0.1,0.1-0.2,0.2-0.2L80.2,3c0.2-0.4,0.1-0.9-0.2-1.1c-0.1-0.1-0.3-0.2-0.5-0.2c-0.3,0-0.5,0.1-0.7,0.4l-1.6,2.2
		C77.1,4.4,77,4.5,77,4.6c-0.1,0.2-0.2,0.3-0.3,0.5l-0.5,0.9c-0.1,0.2-0.3,0.4-0.4,0.6C75.5,7,75.2,7.4,75,7.9l-1.1,2.3
		c-0.2,0.5-0.4,1.1-0.7,1.7c-0.5-0.2-1-0.4-1.4-0.5c-0.5-0.1-1-0.3-1.6-0.4l-0.8-0.1l-0.9-0.1c-0.2,0-0.4,0-0.5,0
		c-0.1,0-0.5,0-0.5,0l-0.1,0l-1,0l-0.4,0c-0.3,0-0.6,0-0.9,0.1c-1.2,0.2-2.4,0.5-3.6,1c-0.2-0.6-0.4-1.1-0.7-1.6l-1.1-2.3
		C59.3,7.4,59,7,58.8,6.6c-0.1-0.2-0.3-0.4-0.4-0.6l-0.5-0.9c-0.1-0.2-0.2-0.3-0.3-0.5c-0.1-0.1-0.1-0.2-0.2-0.3l-1.6-2.3
		c-0.2-0.2-0.4-0.4-0.7-0.4c-0.2,0-0.3,0-0.4,0.1c-0.4,0.2-0.5,0.8-0.3,1.2l1.5,2.3c0,0.1,0.1,0.2,0.2,0.2c0.1,0.2,0.2,0.3,0.3,0.5
		l0.4,0.9c0.1,0.2,0.2,0.4,0.3,0.6c0.2,0.4,0.4,0.8,0.6,1.3l0.9,2.2c0.2,0.5,0.3,1,0.5,1.5c0,0.1,0.1,0.3,0.1,0.4
		c-0.4,0.3-0.8,0.5-1.2,0.8c-1.9,1.6-3.4,3.7-4.4,6.2c-0.5,1.2-0.9,2.4-1.1,3.7c-0.1,0.7-0.2,1.3-0.2,2l0,0.3l0,0.1c0,0,0,0.2,0,0.3
		C52.3,26.4,52.3,26.5,52.3,26.7z M77.7,20c0.5,1,0.8,2.1,1.1,3.2c0.2,0.7,0.3,1.4,0.3,2.1c0,0.2,0,0.4,0,0.5l0,0.1l0,0.4l0,0.1
		c0,0,0,0,0,0.1l0,0.1c-0.1,0.4-0.2,0.8-0.7,1.2c-0.5,0.5-1.5,1-2.6,1.2c0,0,0,0,0,0c0,0,0-0.1,0-0.1l-0.2-0.5
		c-0.1-0.4-0.3-0.8-0.4-1.3l-0.2-0.8c0-0.2-0.1-0.4-0.1-0.5c0-0.1-0.1-0.2-0.1-0.3L74.5,25l-0.1-0.5c0-0.1,0-0.2-0.1-0.4
		c0-0.2-0.1-0.5-0.1-0.7c0-0.2,0-0.4-0.1-0.6c-0.1-0.6-0.1-1.2-0.1-1.8c0-0.1,0-0.3,0-0.4c0-0.3,0-0.5,0-0.8l0.1-1.2
		c0-0.4,0.1-0.7,0.1-1.1l0.2-1.5l0-0.2c0.2,0.2,0.5,0.4,0.7,0.6C76.2,17.4,77,18.6,77.7,20z M65.3,13.5c0.2,0,0.5-0.1,0.7-0.1l0.4,0
		l0.8,0c0,0,0.4,0,0.5,0c0.2,0,0.4,0,0.5,0l0.7,0.1l0.7,0.1c0.5,0.1,1,0.2,1.3,0.3c0.5,0.1,0.9,0.3,1.4,0.5L72,15.5l-0.3,1.7
		c-0.1,0.4-0.2,0.8-0.2,1.1l-0.2,1.4c0,0.3,0,0.6-0.1,0.9c0,0.2,0,0.3,0,0.5c0,0.7,0,1.4,0,2.1c0,0.2,0,0.4,0,0.5
		c0,0.3,0,0.5,0.1,0.8c0,0.1,0,0.3,0,0.4l0.1,0.6l0.2,0.9c0,0.2,0.1,0.5,0.1,0.7L72,28c0.1,0.5,0.3,1.1,0.4,1.5l0,0
		c-0.3,0-0.7,0.1-1,0.1c-1.2,0.1-2.6,0.1-4.5,0.1c-0.3,0-0.7,0-1,0c-1.2,0-2.4-0.1-3.7-0.2l0-0.1c0.1-0.4,0.3-0.9,0.4-1.5l0.2-0.9
		c0-0.2,0.1-0.4,0.1-0.7l0.2-0.9l0.1-0.6c0-0.1,0-0.3,0-0.4c0-0.3,0.1-0.5,0.1-0.8c0-0.2,0-0.4,0-0.6c0-0.7,0.1-1.4,0-2.1
		c0-0.2,0-0.3,0-0.5c0-0.3,0-0.6-0.1-0.9L63,18.3c0-0.4-0.1-0.7-0.2-1.1l-0.3-1.7l-0.3-1.1C63.1,14,64.2,13.6,65.3,13.5z M55.4,25.7
		c0-0.5,0.1-1,0.1-1.5c0.2-1,0.4-2.1,0.8-3.1c0.8-2.1,2-3.9,3.5-5.2c0,0,0.1-0.1,0.1-0.1l0,0.2l0.2,1.5c0.1,0.3,0.1,0.7,0.1,1
		l0.1,1.3c0,0.3,0,0.5,0,0.8c0,0.1,0,0.3,0,0.4c0,0.6-0.1,1.2-0.1,1.8c0,0.2,0,0.4-0.1,0.6c0,0.2-0.1,0.5-0.1,0.7
		c0,0.1,0,0.2-0.1,0.4L60,25c0,0-0.2,0.7-0.2,0.8c0,0.2-0.1,0.4-0.1,0.6l-0.2,0.8c-0.2,0.5-0.3,0.9-0.4,1.3l-0.2,0.5
		c0,0,0,0.1,0,0.1c-0.6-0.2-1.2-0.4-1.6-0.6c-0.4-0.2-0.7-0.4-1-0.7c-0.3-0.2-0.4-0.5-0.6-0.8c-0.1-0.2-0.1-0.4-0.1-0.5
		c0-0.1,0-0.1,0-0.2l0,0L55.4,25.7z"/>
</g>
</svg>
