<?xml version="1.0" encoding="utf-8"?>
<!-- Generator: Adobe Illustrator 21.0.2, SVG Export Plug-In . SVG Version: 6.00 Build 0)  -->
<!DOCTYPE svg PUBLIC "-//W3C//DTD SVG 1.1//EN" "http://www.w3.org/Graphics/SVG/1.1/DTD/svg11.dtd">
<svg version="1.1" id="Layer_1" xmlns="http://www.w3.org/2000/svg" xmlns:xlink="http://www.w3.org/1999/xlink" x="0px" y="0px"
	 viewBox="0 0 134.5 100.1" style="enable-background:new 0 0 134.5 100.1;" xml:space="preserve">
<style type="text/css">
	.st0{fill:#FFFFFF;}
</style>
<g>
	<g>
		<path class="st0" d="M62,99.5c-27.2,0-49.4-22.1-49.4-49.4C12.7,23,34.8,0.8,62,0.8c8.8,0,17.4,2.3,24.9,6.7l2,1.2l-1.6,1.7
			c-2.5,2.7-5,5.7-7.5,9.2l-0.9,1.3l-1.4-0.7c-4.8-2.5-10-3.7-15.4-3.7c-15.3,0-28.7,10.3-32.6,25c-0.4,1.6-0.7,3.2-0.9,4.8
			c-0.1,1.3-0.2,2.6-0.2,3.8c0,17.7,13.9,32.5,31.5,33.7l0.3,0c0.7,0,1.3,0.1,1.9,0.1c17.9,0,32-14.3,33.7-33.9
			c0.5-6-1-9.8-2.5-12.8l-0.6-1.1l0.8-1c3-3.5,5.9-6.7,8.7-9.5l1.8-1.8l1.2,2.2c4.1,7.3,6.3,15.6,6.3,24.1
			C111.4,77.4,89.2,99.5,62,99.5z M62,4.6C36.9,4.6,16.4,25,16.4,50.2c0,25.1,20.5,45.6,45.6,45.6c25.1,0,45.6-20.5,45.6-45.6
			c0-6.9-1.6-13.8-4.6-20c-1.9,2-3.9,4.1-5.9,6.5c2.1,4.4,2.8,8.6,2.4,13.7C97.6,72,81.9,87.7,62,87.7c-0.7,0-1.4,0-2.2-0.1l-0.3,0
			c-19.7-1.3-35.1-17.7-35.1-37.4c0-1.4,0.1-2.8,0.2-4.3c0.2-1.8,0.5-3.6,1-5.4C30.2,24.1,45.1,12.7,62,12.7
			c5.4,0,10.8,1.2,15.7,3.4c1.7-2.3,3.5-4.5,5.2-6.5C76.5,6.3,69.3,4.6,62,4.6z"/>
		<path class="st0" d="M94.5,39.7l-1.9-3.6l0.8-1c2.9-3.5,5.8-6.8,8.5-9.7l1.7-1.9l2.2,3.9l-1,1c-2.7,2.7-5.6,5.8-8.5,9.2L94.5,39.7
			z"/>
	</g>
	<path class="st0" d="M61.5,77.9c-0.9,0-1.7-0.4-2.3-1.1L36.7,49.9c-0.8-1-0.9-2.4-0.2-3.5l9.2-14.3c0.6-0.9,1.6-1.4,2.7-1.4
		c1.1,0.1,2,0.7,2.5,1.7l10,20.2c4.6-10.7,18.9-40.9,37.2-52c1.2-0.7,2.9-1.8,18.4,10.8c0.5,0.4,0.8,1,0.8,1.7
		c0,0.7-0.3,1.3-0.9,1.6l-4.6,3.5c-1.9,1.5-3.8,3.1-5.8,4.7C87.4,40.2,67.8,70.6,64.1,76.5c-0.5,0.8-1.4,1.3-2.3,1.4
		C61.7,77.9,61.6,77.9,61.5,77.9z M40,47.9l21.5,25.7c4.9-7.7,23.8-36.6,42-53.5l0.1-0.1c2-1.7,4-3.3,6-4.9l0,0l3-2.2
		c-5.9-4.7-11.1-8.3-12.9-8.9C80.6,16.1,66,50,63.2,56.7c-0.4,0.9-1.2,1.5-2.2,1.5c-1,0-1.9-0.5-2.3-1.4L48.1,35.3L40,47.9z
		 M114.1,11.8C114.1,11.8,114.1,11.8,114.1,11.8L114.1,11.8z"/>
</g>
</svg>
