<?xml version="1.0" encoding="utf-8"?>
<!-- Generator: Adobe Illustrator 20.0.0, SVG Export Plug-In . SVG Version: 6.00 Build 0)  -->
<svg version="1.1" id="Layer_1" xmlns="http://www.w3.org/2000/svg" xmlns:xlink="http://www.w3.org/1999/xlink" x="0px" y="0px"
	 viewBox="0 0 490 485.5" style="enable-background:new 0 0 490 485.5;" xml:space="preserve">
<style type="text/css">
	.st0{clip-path:url(#SVGID_2_);fill:#FFFFFF;}
</style>
<g>
	<defs>
		<rect id="SVGID_1_" width="490" height="485.5"/>
	</defs>
	<clipPath id="SVGID_2_">
		<use xlink:href="#SVGID_1_"  style="overflow:visible;"/>
	</clipPath>
	<path class="st0" d="M239.9,1.9L215.4,12c-13.1,5.4-19.3,20.5-13.9,33.5l6.3,15.2c-12.3,9.1-23,19.9-32.2,32.2l-15.2-6.3
		c-6.3-2.6-13.3-2.6-19.6,0s-11.3,7.6-13.9,13.9L116.7,125c-5.4,13.1,0.8,28.1,13.9,33.5l22.5,9.3c5.1,2.1,10.8-0.3,12.9-5.4
		c2.1-5.1-0.3-10.8-5.4-12.9l-22.5-9.3c-3-1.2-4.4-4.7-3.2-7.7l10.2-24.5c0.6-1.4,1.7-2.6,3.2-3.2c1.4-0.6,3-0.6,4.5,0l22.5,9.3
		c4.4,1.8,9.4,0.3,12-3.6c10.1-15.2,22.9-28,38.1-38.1c3.9-2.6,5.5-7.7,3.7-12l-9.3-22.5c-1.2-3,0.2-6.4,3.2-7.7l24.5-10.1
		c1.4-0.6,3-0.6,4.5,0c1.4,0.6,2.6,1.7,3.2,3.2l9.3,22.5c1.8,4.4,6.4,6.9,11.1,5.9c17.8-3.6,36-3.5,53.8,0c4.6,0.9,9.3-1.6,11.1-5.9
		l9.3-22.5c1.2-3,4.7-4.4,7.7-3.2L382,30.3c1.4,0.6,2.6,1.7,3.2,3.2c0.6,1.4,0.6,3,0,4.5l-9.3,22.5c-1.8,4.4-0.3,9.4,3.6,12
		c15.2,10.1,28,22.9,38.1,38.1c2.6,3.9,7.7,5.5,12,3.7l22.5-9.3c1.5-0.6,3-0.6,4.5,0c1.4,0.6,2.6,1.7,3.2,3.2l10.1,24.5
		c0.6,1.4,0.6,3,0,4.5c-0.6,1.4-1.7,2.6-3.2,3.2l-22.5,9.3c-4.4,1.8-6.8,6.4-5.9,11.1c3.6,17.8,3.5,36,0,53.8
		c-0.9,4.6,1.6,9.3,5.9,11.1l22.5,9.3c3,1.2,4.4,4.7,3.2,7.7l-10.2,24.5c-1.2,3-4.7,4.4-7.7,3.2l-22.5-9.3c-4.4-1.8-9.4-0.3-12,3.6
		c-10.1,15.2-22.9,28-38.1,38.1c-3.9,2.6-5.5,7.7-3.7,12l9.3,22.5c0.6,1.4,0.6,3,0,4.5c-0.6,1.4-1.7,2.6-3.2,3.2l-24.5,10.1
		c-1.4,0.6-3,0.6-4.5,0c-1.4-0.6-2.6-1.7-3.2-3.2l-9.3-22.5c-2.1-5.1-7.9-7.5-12.9-5.4c-5.1,2.1-7.5,7.9-5.4,12.9l9.3,22.5
		c2.6,6.3,7.6,11.3,13.9,13.9c3.2,1.3,6.5,2,9.8,2c3.3,0,6.7-0.7,9.8-2l24.5-10.1c6.3-2.6,11.3-7.6,13.9-13.9
		c2.6-6.3,2.6-13.3,0-19.6l-6.3-15.2c12.3-9.1,23-19.9,32.2-32.2l15.2,6.3c13.1,5.4,28.1-0.8,33.5-13.9l10.2-24.5
		c5.4-13.1-0.8-28.1-13.9-33.5l-15.2-6.3c2.2-15.1,2.2-30.4,0-45.5l15.2-6.3c6.3-2.6,11.3-7.6,13.9-13.9c2.6-6.3,2.6-13.3,0-19.6
		l-10.1-24.5c-2.6-6.3-7.6-11.3-13.9-13.9c-6.3-2.6-13.3-2.6-19.6,0L429.2,93c-9.1-12.3-19.9-23.1-32.1-32.2l6.3-15.2
		c2.6-6.3,2.6-13.3,0-19.6c-2.6-6.3-7.6-11.3-13.9-13.9L365,1.9c-13.1-5.4-28.1,0.8-33.5,13.9L325.2,31c-15.1-2.2-30.4-2.2-45.5,0
		l-6.3-15.2c-2.6-6.3-7.6-11.3-13.9-13.9C253.2-0.7,246.2-0.7,239.9,1.9"/>
	<path class="st0" d="M382.9,187c-0.3-44.2-36.4-79.9-80.5-79.9h-0.6c-21.5,0.2-41.7,8.7-56.8,24c-15.1,15.3-23.3,35.6-23.2,57.1
		c0,5.4,4.5,9.8,9.9,9.8h0.1c5.5,0,9.9-4.5,9.8-10c-0.1-16.2,6.1-31.5,17.5-43.1c11.4-11.6,26.6-18,42.8-18.1h0.4
		c33.3,0,60.5,27,60.7,60.3c0.2,33.5-26.8,60.9-60.3,61.2c-5.5,0-9.9,4.5-9.8,10c0,5.4,4.5,9.8,9.9,9.8h0.1
		C347.4,267.8,383.2,231.4,382.9,187"/>
	<path class="st0" d="M135.3,485.5h19.3c11.8,0,21.4-9.6,21.4-21.4v-9.9c9.6-2.6,18.8-6.4,27.4-11.4l7,7c4,4,9.4,6.3,15.1,6.3
		c5.7,0,11.1-2.2,15.1-6.3l13.6-13.6c4-4,6.3-9.4,6.3-15.1c0-5.7-2.2-11.1-6.3-15.1l-7-7c5-8.6,8.8-17.8,11.4-27.4h9.9
		c11.8,0,21.4-9.6,21.4-21.4V331c0-11.8-9.6-21.4-21.4-21.4h-9.9c-2.6-9.6-6.4-18.8-11.4-27.4l7-7c4-4,6.3-9.4,6.3-15.1
		c0-5.7-2.2-11.1-6.3-15.1l-13.6-13.6c-4-4-9.4-6.3-15.1-6.3c-5.7,0-11.1,2.2-15.1,6.3l-7,7c-8.6-5-17.8-8.8-27.4-11.4V217
		c0-11.8-9.6-21.4-21.4-21.4h-19.3c-11.8,0-21.4,9.6-21.4,21.4v9.9c-9.6,2.6-18.8,6.4-27.4,11.4l-7-7c-4-4-9.4-6.3-15.1-6.3
		c-5.7,0-11.1,2.2-15.1,6.3L35.7,245c-8.3,8.3-8.3,21.9,0,30.2l7,7c-5,8.6-8.8,17.8-11.4,27.4h-9.9C9.6,309.5,0,319.1,0,331v19.3
		c0,11.8,9.6,21.4,21.4,21.4h9.9c2.6,9.6,6.4,18.8,11.4,27.4l-7,7c-8.3,8.3-8.3,21.9,0,30.2l13.6,13.6c4,4,9.4,6.3,15.1,6.3
		c5.7,0,11.1-2.2,15.1-6.3l7-7c8.6,5,17.8,8.8,27.4,11.4v9.9C114,476,123.6,485.5,135.3,485.5 M90.6,422.1c-1.7-1.1-3.6-1.7-5.5-1.7
		c-2.6,0-5.1,1-7,2.9l-12.5,12.5c-0.4,0.4-0.8,0.5-1.1,0.5c-0.3,0-0.7-0.1-1.1-0.5l-13.6-13.6c-0.6-0.6-0.6-1.6,0-2.2l12.5-12.5
		c3.3-3.3,3.9-8.6,1.2-12.5c-7.2-10.7-12.1-22.6-14.6-35.2c-0.9-4.6-5-8-9.7-8H21.5c-0.9,0-1.6-0.7-1.6-1.6V331
		c0-0.9,0.7-1.6,1.6-1.6h17.7c4.7,0,8.8-3.3,9.7-8c2.5-12.6,7.4-24.5,14.6-35.2c2.6-3.9,2.1-9.2-1.2-12.5l-12.5-12.5
		c-0.6-0.6-0.6-1.6,0-2.2l13.6-13.6c0.4-0.4,0.8-0.5,1.1-0.5c0.3,0,0.7,0.1,1.1,0.5L78.1,258c3.3,3.3,8.6,3.9,12.5,1.2
		c10.7-7.2,22.6-12.1,35.2-14.6c4.6-0.9,8-5,8-9.7v-17.7c0-0.9,0.7-1.6,1.6-1.6h19.3c0.9,0,1.6,0.7,1.6,1.6v17.7
		c0,4.7,3.3,8.8,8,9.7c12.6,2.5,24.5,7.4,35.2,14.6c3.9,2.6,9.2,2.1,12.5-1.2l12.5-12.5c0.4-0.4,0.8-0.5,1.1-0.5s0.7,0.1,1.1,0.5
		l13.6,13.6c0.4,0.4,0.5,0.8,0.5,1.1c0,0.3-0.1,0.7-0.5,1.1l-12.5,12.5c-3.3,3.3-3.9,8.6-1.2,12.5c7.2,10.7,12.1,22.6,14.6,35.2
		c0.9,4.6,5,8,9.7,8h17.7c0.9,0,1.6,0.7,1.6,1.6v19.3c0,0.9-0.7,1.6-1.6,1.6h-17.7c-4.7,0-8.8,3.3-9.7,8
		c-2.5,12.6-7.4,24.5-14.6,35.2c-2.6,3.9-2.1,9.2,1.2,12.5l12.5,12.5c0.4,0.4,0.5,0.8,0.5,1.1c0,0.3-0.1,0.7-0.5,1.1L226.7,436
		c-0.4,0.4-0.8,0.5-1.1,0.5s-0.7-0.1-1.1-0.5L212,423.5c-3.3-3.3-8.6-3.9-12.5-1.2c-10.7,7.2-22.6,12.1-35.2,14.6
		c-4.6,0.9-8,5-8,9.7v17.7c0,0.9-0.7,1.6-1.6,1.6h-19.3c-0.9,0-1.6-0.7-1.6-1.6v-17.7c0-4.7-3.3-8.8-8-9.7
		C113.2,434.3,101.3,429.3,90.6,422.1"/>
	<path class="st0" d="M203.7,340.8c0-32.4-26.4-58.8-58.8-58.8s-58.7,26.4-58.7,58.8c0,32.4,26.4,58.8,58.8,58.8
		S203.7,373.1,203.7,340.8 M106,340.8c0-21.5,17.5-39,39-39s39,17.5,39,39s-17.5,39-39,39S106,362.1,106,340.8"/>
</g>
</svg>
