<?xml version="1.0" encoding="utf-8"?>
<!-- Generator: Adobe Illustrator 20.0.0, SVG Export Plug-In . SVG Version: 6.00 Build 0)  -->
<svg version="1.1" id="Layer_1" xmlns="http://www.w3.org/2000/svg" xmlns:xlink="http://www.w3.org/1999/xlink" x="0px" y="0px"
	 viewBox="0 0 134.5 100.1" style="enable-background:new 0 0 134.5 100.1;" xml:space="preserve">
<style type="text/css">
	.st0{clip-path:url(#SVGID_2_);fill:#FFFFFF;}
</style>
<g>
	<defs>
		<rect id="SVGID_1_" y="0" width="134.5" height="100.1"/>
	</defs>
	<clipPath id="SVGID_2_">
		<use xlink:href="#SVGID_1_"  style="overflow:visible;"/>
	</clipPath>
	<path class="st0" d="M94.4,100.1c-0.1,0-0.3,0-0.4,0c-7.4-0.4-79.5-10.1-92-29.2c-2.1-3.3-2.6-6.7-1.3-10.2c0.3-0.7,0.6-1.4,1-2
		c0.5-1,1.8-1.3,2.7-0.7c1,0.5,1.3,1.8,0.7,2.7c-0.3,0.5-0.5,1-0.7,1.4c-0.8,2.2-0.5,4.4,0.9,6.6c10.8,16.5,78.4,26.8,88.9,27.4
		c0.1,0,0.1,0,0.2,0c5.7,0,24.7-11.2,32.8-21.7c2.6-3.4,3.7-6.3,3.1-8.2c-0.1-0.2-0.1-0.3-0.1-0.5c-0.6-1.2-5.4-5-19.8-12.2
		c-1-0.5-1.4-1.7-0.9-2.7c0.5-1,1.7-1.4,2.7-0.9c20.7,10.3,21.9,13.6,22,15.4c0.9,3.2-0.4,7.1-3.8,11.5
		C122.4,87.4,102.5,100.1,94.4,100.1"/>
	<path class="st0" d="M100.7,75.7c-0.4,0-0.8-0.1-1.2-0.4c-0.6-0.5-0.9-1.3-0.8-2c0,0,0,0,0-0.1c0-1.7-0.6-15.5-6.4-29.2
		c-8.2-19.1-22.4-29-42.3-29.3c-0.3,0-0.6,0-0.8,0c-16.9,0-29.8,8.1-38.5,23.9c-0.3,0.6-0.9,1-1.5,1c-0.6,0.1-1.3-0.2-1.7-0.7
		c-0.5-0.6-0.7-1.4-0.4-2.1C13.3,20.1,27,0,56.7,0c0.4,0,0.8,0,1.1,0c28.5,0.5,42.2,17.2,48.6,31.2c6.9,14.9,7.2,29.5,7.2,30.2
		c0,0.1,0,0.2,0,0.3c0,0.2-0.9,5.5-6.9,10.9c-0.1,0.1-0.2,0.2-0.4,0.3l-4.7,2.6C101.3,75.6,101,75.7,100.7,75.7 M49.2,10.7
		c0.3,0,0.6,0,0.9,0C71.5,11,87.3,22.1,96,42.6c4.8,11.4,6.2,22.6,6.5,27.8l1.6-0.9c4.3-3.9,5.3-7.5,5.4-8.2
		c-0.1-1.8-0.7-15.2-6.9-28.4C94.1,14,78.9,4.4,57.8,4c-16.9-0.3-28.3,6.4-36,15.3C29.4,13.6,38.6,10.7,49.2,10.7"/>
	<path class="st0" d="M62.5,84.5L62.5,84.5C24,84.5,2.9,68.1,2,67.4c-0.5-0.4-0.8-1-0.8-1.6c0-0.7,0.4-16.5,7.4-32.7
		C17.9,11.5,34.5,0,56.7,0c0.4,0,0.8,0,1.1,0c28.5,0.5,42.2,17.2,48.6,31.2c6.9,14.9,7.2,29.5,7.2,30.2c0,0.1,0,0.2,0,0.3
		c-0.1,0.9-3.5,21.2-46.1,22.8C65.9,84.5,64.2,84.5,62.5,84.5 M5.3,64.9c4.1,2.9,24.2,15.7,57.2,15.7h0c1.6,0,3.3,0,4.9-0.1
		c37.5-1.4,41.9-17.6,42.3-19.2c-0.1-1.7-0.7-15.1-6.9-28.5C94.1,14,78.9,4.4,57.8,4C36.4,3.7,21.2,14,12.3,34.7
		C6.6,47.9,5.5,61.1,5.3,64.9"/>
	<path class="st0" d="M100.7,75.7c-0.1,0-0.3,0-0.4,0c-1.1-0.2-1.8-1.3-1.5-2.4c0,0,0,0,0-0.1c0-1.7-0.6-15.5-6.4-29.2
		c-8.2-19.1-22.4-29-42.3-29.3c-17.3-0.2-30.5,7.8-39.3,23.9c-0.5,1-1.7,1.3-2.7,0.8c-1-0.5-1.3-1.7-0.8-2.7c9.4-17.3,23.5-26,42-26
		c0.3,0,0.6,0,0.9,0C71.5,11,87.3,22.1,96,42.6c6.5,15.3,6.7,30.2,6.7,30.8c0,0.1,0,0.2,0,0.3c0,0,0,0.2-0.1,0.4
		C102.4,75.1,101.6,75.7,100.7,75.7"/>
</g>
</svg>
