<?xml version="1.0" encoding="utf-8"?>
<!-- Generator: Adobe Illustrator 21.0.2, SVG Export Plug-In . SVG Version: 6.00 Build 0)  -->
<!DOCTYPE svg PUBLIC "-//W3C//DTD SVG 1.1//EN" "http://www.w3.org/Graphics/SVG/1.1/DTD/svg11.dtd">
<svg version="1.1" id="Layer_1" xmlns="http://www.w3.org/2000/svg" xmlns:xlink="http://www.w3.org/1999/xlink" x="0px" y="0px"
	 viewBox="0 0 134.5 100.1" style="enable-background:new 0 0 134.5 100.1;" xml:space="preserve">
<style type="text/css">
	.st0{fill:#FFFFFF;}
</style>
<g>
	<g>
		<path class="st0" d="M95,79.2l-0.4-1.7c-1.6-6.2-2.5-10.6-2.9-13.2c-0.4-2.9-1.6-5.7-3.5-7.9c-1.9-2.2-4.4-3.4-7.2-3.4H65.7
			l6.4-3.7c4.5-2.6,7.3-7.5,7.3-12.6c0-0.6,0-1.2-0.1-1.9L79,32.4h9.2l1.3,4h4.9l1.3-4h12.4c3,0,5.9,1.3,8,3.8
			c2,2.3,3.4,5.4,3.8,8.5v0c0.4,3.5,2.1,10.4,4.7,20.1L125,66l-1,0.8c-3.7,3.1-7.6,5.7-11.6,7.6l-2.3,1.1l0-0.1l-0.4,0.2
			c-4.2,1.7-8.5,2.8-12.9,3.3L95,79.2z M78.7,48.9H81c3.9,0,7.5,1.7,10.2,4.8c2.4,2.7,4,6.4,4.5,10c0.3,2.2,1.1,6,2.4,11
			c3-0.4,5.9-1.2,8.8-2.3V58.8l4-0.4l2.2,11.2c2.6-1.4,5.1-3.1,7.5-5.1c-2.5-9.3-4-15.8-4.5-19.4l0,0c-0.3-2.3-1.3-4.6-2.9-6.4
			c-1.3-1.5-3.1-2.4-4.9-2.4h-9.5l-1.3,4H86.7l-1.3-4h-1.9c0,0,0,0.1,0,0.1C83.5,41.2,81.7,45.6,78.7,48.9z"/>
		<path class="st0" d="M92,32.9c-8.3,0-15-7-15-15.7c0-8.7,6.7-15.7,15-15.7c8.3,0,15,7,15,15.7C107.1,25.8,100.3,32.9,92,32.9z
			 M92,5.4c-6.1,0-11,5.3-11,11.7c0,6.5,4.9,11.7,11,11.7c6.1,0,11-5.2,11-11.7C103.1,10.7,98.1,5.4,92,5.4z"/>
	</g>
	<g>
		<path class="st0" d="M38.1,79.2L36.4,79c-4.4-0.5-8.7-1.6-12.9-3.3L23,75.5l0,0.1l-2.3-1.1c-4-2-7.9-4.5-11.6-7.6l-1-0.8l0.3-1.2
			c2.6-9.7,4.3-16.6,4.7-20.1c0.4-3.1,1.8-6.2,3.8-8.5c2.1-2.4,4.9-3.8,8-3.8h12.4l1.3,4h4.9l1.3-4h9.2l-0.3,2.3
			c-0.1,0.7-0.1,1.3-0.1,1.9c0,5.2,2.8,10,7.3,12.6l6.4,3.7H52.1c-2.7,0-5.2,1.2-7.1,3.4l0,0c-1.9,2.2-3.2,5.1-3.5,7.9
			c-0.3,2.6-1.3,7.1-2.9,13.2L38.1,79.2z M26.2,72.5c2.9,1.1,5.8,1.9,8.8,2.3c1.3-5.1,2.1-8.9,2.4-11c0.5-3.6,2.1-7.3,4.5-10.1l0,0
			c2.7-3.1,6.3-4.8,10.2-4.8h2.3c-3-3.4-4.7-7.8-4.7-12.4c0,0,0-0.1,0-0.1h-1.9l-1.3,4H35.7l-1.3-4h-9.5c-1.9,0-3.6,0.8-4.9,2.4
			c-1.5,1.8-2.6,4.1-2.9,6.4c-0.4,3.6-2,10.1-4.5,19.4c2.4,1.9,4.9,3.6,7.5,5.1l2.2-11.2l4,0.4V72.5z"/>
		<path class="st0" d="M41.1,32.9c-8.3,0-15-7-15-15.7c0-8.7,6.7-15.7,15-15.7c8.3,0,15,7,15,15.7C56.1,25.8,49.3,32.9,41.1,32.9z
			 M41.1,5.4c-6.1,0-11,5.3-11,11.7c0,6.5,4.9,11.7,11,11.7c6.1,0,11-5.2,11-11.7C52.1,10.7,47.1,5.4,41.1,5.4z"/>
	</g>
	<g>
		<path class="st0" d="M67.3,98.7c-6,0-11.9-1.2-17.6-3.5L49.2,95l0,0.1l-2.3-1.1c-4-2-7.9-4.5-11.6-7.6l-1-0.8l0.3-1.2
			c2.6-9.7,4.3-16.6,4.7-20.1c0.4-3.1,1.8-6.2,3.8-8.5c2.1-2.4,4.9-3.8,8-3.8h12.4l1.3,4h4.9l1.3-4h12.4c3,0,5.9,1.3,8,3.8
			c2,2.3,3.4,5.4,3.8,8.5c0.4,3.5,2.1,10.4,4.7,20.1l0.3,1.2l-1,0.8c-3.7,3.1-7.6,5.7-11.6,7.6L85.3,95l0-0.1l-0.4,0.2
			C79.2,97.5,73.2,98.7,67.3,98.7z M52.4,91.9c9.6,3.6,20,3.6,29.6,0V78.2l4-0.4l2.2,11.2c2.6-1.4,5.1-3.1,7.5-5.1
			c-2.5-9.3-4-15.8-4.5-19.4c-0.3-2.3-1.3-4.6-2.9-6.4c-1.3-1.5-3.1-2.4-4.9-2.4h-9.5l-1.3,4H61.9l-1.3-4h-9.5
			c-1.9,0-3.6,0.8-4.9,2.4c-1.5,1.8-2.6,4.1-2.9,6.4c-0.4,3.6-2,10.1-4.5,19.4c2.4,1.9,4.9,3.6,7.5,5.1l2.2-11.2l4,0.4V91.9z"/>
		<path class="st0" d="M67.3,52.3c-8.3,0-15-7-15-15.7c0-8.7,6.7-15.7,15-15.7c8.3,0,15,7,15,15.7C82.3,45.2,75.5,52.3,67.3,52.3z
			 M67.3,24.9c-6.1,0-11,5.3-11,11.7c0,6.5,4.9,11.7,11,11.7c6.1,0,11-5.2,11-11.7C78.3,30.1,73.3,24.9,67.3,24.9z"/>
	</g>
</g>
</svg>
