<?xml version="1.0" encoding="utf-8"?>
<!-- Generator: Adobe Illustrator 21.0.2, SVG Export Plug-In . SVG Version: 6.00 Build 0)  -->
<!DOCTYPE svg PUBLIC "-//W3C//DTD SVG 1.1//EN" "http://www.w3.org/Graphics/SVG/1.1/DTD/svg11.dtd">
<svg version="1.1" id="Layer_1" xmlns="http://www.w3.org/2000/svg" xmlns:xlink="http://www.w3.org/1999/xlink" x="0px" y="0px"
	 viewBox="0 0 134.5 100.1" style="enable-background:new 0 0 134.5 100.1;" xml:space="preserve">
<style type="text/css">
	.st0{fill:#FFFFFF;}
</style>
<path class="st0" d="M116.3,15.9L101,23.6l2,1.8c0.1,0.1,0.3,0.3,0.4,0.4c-2,0.8-4,1.6-6,2.3c1.3-3.2,2.4-8.5,0.6-10.6
	c-0.7-0.8-2-1.4-4.4-0.2c-5.8,2.9-6,3-9.1,3.7c-1.3-1-2.8-1.9-4.5-2.3c-1.8-0.5-3.6-0.5-5.3-0.2c-0.8,0.1-1.6,0.3-2.3,0.4
	c-0.7,0.1-1.5,0.1-2.3,0.1c-1.5,0-3.2-0.2-4.8-0.1c-0.8,0-1.7,0.1-2.6,0.2c-0.5,0.1-0.9,0.2-1.4,0.4c-0.5,0.2-1,0.5-1.4,1.1
	c-0.1,0.1-0.2,0.3-0.3,0.4c-0.1,0.2-0.2,0.4-0.2,0.5l0,0.1l0,0.1l0,0.1l-0.1,0.3l-0.2,1.2c-0.1,0.3-0.1,0.6-0.2,0.9
	c-7.9-0.3-15.7,0.3-19.3,0.8l-10.5-1.6c0.1-1.7,0.2-3.1,0.1-4.2l-0.1-1.1l-12.5-5.4L1,57.4l13.5,7.2l1-0.9c1.5-1.4,2.9-3.5,4.2-6
	c1.7,1.2,4.8,3.3,6.4,4.4c0.1,0.1,0.3,0.2,0.4,0.3c-0.5,0.3-1,0.6-1.5,1c-0.7,0.6-1.4,1.3-1.8,2.4c-0.2,0.5-0.3,1.1-0.1,1.8
	c0.2,0.6,0.6,1.2,1,1.5c0.2,0.2,0.4,0.3,0.6,0.5c0.2,0.1,0.4,0.3,0.6,0.4c0.4,0.3,0.9,0.5,1.3,0.6c1.9,0.7,3.9,0.7,5.7,0.4
	c1.5-0.3,3-0.8,4.3-1.6c0.2,0.1,0.3,0.2,0.5,0.3c0,0.6,0.1,1.1,0.3,1.6c0.2,0.9,0.6,1.7,1.1,2.4c0.5,0.7,1.2,1.3,2,1.5l0,0
	c0.8,0.3,1.6,0.5,2.4,0.5c0.8,0.1,1.7-0.1,2.5-0.5c0.1,0,0.1-0.1,0.2-0.1c0.3,0.2,0.5,0.3,0.8,0.5c0.2,1,0.6,2,1.3,2.8
	c1.1,1.3,2.5,2.1,3.9,2.6l0,0h0c0.7,0.3,1.6,0.1,2.2-0.5c0.1-0.1,0.2-0.2,0.3-0.3c-0.1,0.7,0,1.4,0.1,2.2c0.2,0.8,0.5,1.6,1.1,2.2
	c0.3,0.3,0.7,0.6,1.1,0.7c0.5,0.2,0.8,0.2,1.2,0.3c0.7,0.1,1.5,0.1,2.3-0.1c0.8-0.2,1.5-0.7,2-1.3c0,0,0.1-0.1,0.1-0.1
	C66,86,69.5,87,72.2,87c1.2,0,2.3-0.2,3.2-0.7c0.9-0.4,1.9-1.3,2.4-2.7c2.2,0.7,5.5,1.4,8.3-0.1c1.8-1,3.1-2.7,3.7-5.2
	c2.3,0.7,4.8,0.9,6.7-0.6c1.6-1.2,2.5-3.4,2.7-6.6c3.4,0.8,6.5,0,8.4-2.4c1.4-1.7,2.1-4.5,0.9-7.8l5.7-2.6l4.5,7.5l1-0.8l16-9.3
	L116.3,15.9z M94.6,19c0.7-0.4,1.7-0.7,2.2-0.2c1.2,1.3,0.1,6.5-1.2,9.3c-0.9-0.6-1.7-1.2-2.7-1.8c-0.7-0.4-1.5-0.9-2.3-1.2
	c-0.7-0.3-1.3-0.6-1.9-1c-0.7-0.5-1.4-1-2.1-1.5C88.6,22,89.6,21.5,94.6,19z M13.8,60.1l-8.3-4.4l13.3-38l6.8,2.9
	C25.7,29.1,20.2,52.4,13.8,60.1z M104.6,66.5c-1.2,1.6-3.8,1.7-6.6,0.4L96.2,66c-0.5-0.4-1-0.7-1.5-1.1c-1.4-1.1-2.8-2.3-4.1-3.6
	c-2.7-2.5-5.1-5.2-7.4-8.1c1.9,3.2,4,6.2,6.4,9.1c1.2,1.4,2.4,2.8,3.7,4.1c0.7,0.7,1.4,1.4,2.1,2.1l0,0.2c0.3,4.4-0.6,5.7-1.2,6.2
	c-1.2,0.9-4-0.1-5.4-0.6l-2.2-0.8v0c-0.4-0.3-0.8-0.5-1.2-0.8c-1.3-0.9-2.5-1.8-3.7-2.8c-1.2-1-2.3-2-3.4-3.1
	c-1.1-1.1-2.2-2.2-3.1-3.5c0.7,1.4,1.6,2.7,2.6,3.9c0.9,1.2,2,2.5,3,3.6c1.1,1.2,2.2,2.3,3.3,3.4c0.7,0.7,1.5,1.3,2.2,2
	c-0.3,2.1-0.9,3.5-2.1,4.1c-2.2,1.2-5.8-0.2-7-0.9l-2.6-1.4l0,0.2c-1.2-1-2.4-2-3.6-3.1c-1.9-1.8-3.6-3.7-5.1-5.9
	c1.2,2.3,2.8,4.4,4.5,6.5c0.8,1,1.7,2,2.6,3c0.5,0.5,1,1,1.5,1.5l0,0.8c0,1.6-0.7,1.9-0.9,2.1c-1.7,0.9-5.3,0.1-10.5-2.3
	c0-0.2,0-0.4,0-0.5c0-1.4-0.2-2.8-0.7-4.1c-0.2-0.6-0.5-1.3-0.8-1.9c-0.3-0.6-0.7-1.2-1.4-1.5h0c-0.7-0.3-1.5-0.1-2.1,0.2
	c-0.6,0.4-1.2,0.9-1.7,1.4c0,0,0,0-0.1,0.1c0.2-1.5,0.1-3.1-0.3-4.7c-0.2-0.8-0.6-1.6-1.2-2.3c-0.3-0.4-0.7-0.7-1.1-0.9
	c-0.2-0.1-0.4-0.2-0.7-0.3c-0.3-0.1-0.6-0.1-0.9-0.2c-1.2,0-2.1,0.5-2.8,1.1c-0.5,0.4-0.9,0.8-1.2,1.2c0-0.8-0.1-1.6-0.2-2.4
	c-0.3-1.7-0.9-3.4-2.2-4.9c-0.2-0.2-0.4-0.4-0.6-0.5c-0.2-0.2-0.5-0.4-0.7-0.4c-0.6-0.3-1.3-0.4-1.9-0.3c-1.3,0.2-2.1,0.9-2.8,1.6
	c-1.2,1.3-1.9,2.7-2.4,4.2c-2.1-1.4-4.3-2.9-6.7-4.6c-1.1-0.8-2.1-1.5-2.9-2c-1.8-1.2-5.3-3.6-6.9-4.7c3.8-8.6,6.6-20.3,7.6-28.3
	l10.8,1.6l0.2,0c3.3-0.5,10.7-1.1,18.4-0.8c-0.3,1-0.7,2.1-1.2,2.9c-0.8,1.2-2,2.4-2.9,3.9c-0.5,0.7-0.9,1.5-1.1,2.5
	c-0.1,0.5-0.1,1,0,1.6c0.1,0.5,0.4,1,0.8,1.4c0.4,0.4,0.8,0.7,1.2,0.9c0.4,0.2,0.8,0.4,1.2,0.5c0.8,0.3,1.7,0.5,2.6,0.5
	c1.8,0.1,3.5-0.5,4.9-1.4c1.4-0.9,2.7-2,3.8-3.2c0.6-0.6,1.1-1.3,1.5-2.1c0.3-0.6,0.5-1.4,0.5-2.1c1.6,0.4,3.2,0.7,4.8,0.5
	c0.9-0.1,1.7-0.3,2.5-0.7c0.8-0.4,1.5-1,2-1.6c0,0.2,0,0.4,0,0.6c0,1,0.3,2,0.7,2.9c0.3,0.5,0.6,1.1,1,1.5c0.1,0.1,0.2,0.2,0.2,0.3
	l-0.4,0.5c10.3,7.3,18.4,17.5,22.8,23.1C105.4,62.1,105.9,64.9,104.6,66.5z M114.8,58.1l2.1-1c0.4,1.7,0.7,3.1,0.9,4.1L114.8,58.1z
	 M120.3,55.5c-1-4.2-2.4-9.7-4.5-15.2c-0.8-2.2-1.7-4.3-2.7-6.4c-1.7-3.6-3.6-6.8-5.9-9.4l1.6-0.8l5.7-2.9l16.1,33.6l-9.4,5.5
	C121.1,58.8,120.7,57.3,120.3,55.5z"/>
</svg>
