<?xml version="1.0" encoding="utf-8"?>
<!-- Generator: Adobe Illustrator 21.0.2, SVG Export Plug-In . SVG Version: 6.00 Build 0)  -->
<!DOCTYPE svg PUBLIC "-//W3C//DTD SVG 1.1//EN" "http://www.w3.org/Graphics/SVG/1.1/DTD/svg11.dtd">
<svg version="1.1" id="Layer_1" xmlns="http://www.w3.org/2000/svg" xmlns:xlink="http://www.w3.org/1999/xlink" x="0px" y="0px"
	 viewBox="0 0 134.5 100.1" style="enable-background:new 0 0 134.5 100.1;" xml:space="preserve">
<style type="text/css">
	.st0{fill:#FFFFFF;}
</style>
<g>
	<g>
		<path class="st0" d="M91.2,85.1l-24-17.4l-24,17.4l9.2-28.2l-24-17.4H58l9.2-28.2l9.2,28.2H106L82,56.9L91.2,85.1z M37.1,42.4
			l18.6,13.5l-7.1,21.8l18.6-13.5l18.6,13.5l-7.1-21.8l18.6-13.5H74.3l-7.1-21.8l-7.1,21.8H37.1z"/>
	</g>
	<path class="st0" d="M117.4,88.8l-14.6-17.9l-17.1,6.7l-1.1-3.4l9.2-14.3l-7.7-9.4l6.7-4.9l8.7,2.3l12.5-19.4l1.3,23.1l22.3,5.9
		l-21.5,8.4L117.4,88.8z M103.7,67.5l10.4,12.7l-0.9-16.4l15.3-6l-15.9-4.2l-0.9-16.4l-8.9,13.8l-9.3-2.5L90.2,51l7.1,8.7l-8.9,13.8
		L103.7,67.5z"/>
	<path class="st0" d="M17.1,88.8l1.3-23.1l-21.5-8.4l22.3-5.9l1.3-23.1l12.5,19.4l8.7-2.3l6.7,4.9l-7.7,9.4l9.2,14.3l-1.1,3.4
		l-17.1-6.7L17.1,88.8z M6.1,57.9l15.3,6l-0.9,16.4l10.4-12.7l15.3,6l-8.9-13.8l7.1-8.7l-3.2-2.3l-9.4,2.5l-8.9-13.8L22,53.7
		L6.1,57.9z"/>
</g>
</svg>
