<?xml version="1.0" encoding="utf-8"?>
<!-- Generator: Adobe Illustrator 20.0.0, SVG Export Plug-In . SVG Version: 6.00 Build 0)  -->
<svg version="1.1" id="Layer_1" xmlns="http://www.w3.org/2000/svg" xmlns:xlink="http://www.w3.org/1999/xlink" x="0px" y="0px"
	 viewBox="0 0 511.9 512" style="enable-background:new 0 0 511.9 512;" xml:space="preserve">
<style type="text/css">
	.st0{clip-path:url(#SVGID_2_);fill:#FFFFFF;}
</style>
<g>
	<defs>
		<rect id="SVGID_1_" width="511.9" height="512"/>
	</defs>
	<clipPath id="SVGID_2_">
		<use xlink:href="#SVGID_1_"  style="overflow:visible;"/>
	</clipPath>
	<path class="st0" d="M482.7,386.6c-10.6-7.5-22.9-11.5-35.3-12.2c-46.7-30.6-77.3-53.6-95.2-71.4l-54.9-54.9l33.3-37.3
		c6.3,3.6,13.1,5.9,19.9,6.9c5.1,0.9,8.5,0.9,11.9,0.9c6.8,0,8.5,0,15.4,6c-3.4,2.6-5.1,6.8-5.1,11.1s1.7,9.4,5.1,12.8l29.9,29.9
		c4.3,5.1,11.1,7.7,17.9,7.7c6.8,0,13.6-2.6,17.9-8.5l60.6-60.6c5.1-4.3,7.7-11.1,7.7-17.9c0-6.8-2.6-12.8-7.7-17.9l-29.9-29.9
		c-3.4-3.4-7.7-5.1-11.9-5.1c-4.3,0-8.5,2.6-11.9,5.1c-6.8-6-6.8-7.7-6.8-14.5c0-3.4,0-7.7-1.7-12.8c-1.7-11.9-7.7-23.9-17.1-33.3
		L394,60c-17.9-17.9-26.4-26.4-49.5-36.7c-49.5-23-99.8-18.8-173.1,14.5c-4.3,1.7-6,5.1-5.1,9.4c0.9,4.3,4.3,6.8,8.5,6.8h11.1
		c37.5,0,57.1,0,91.3,34.1c14.9,14.9,15.4,37.8,2,54.7c-1.8,0.3-3.2,1.1-4.5,2.4l-37.9,42.3l-28.6-28.6
		c-31.5-31.5-53.6-61.3-70.7-94.4c-0.9-16.8-7.6-32.5-19.7-44.6C103.2,5.4,82.7-1.4,62.3,0.3c-2.6,0.9-5.1,2.6-6,4.3
		c-1.7,2.6-1.7,6,0,8.5l23.9,42.6c-5.1,11.1-17.1,17.9-29,17.1L26.4,31.8c-0.9-2.6-4.3-4.3-6.8-4.3c-2.6-0.9-5.1,0.9-6.8,3.4
		c-20.5,30.7-12.8,71.6,17.9,93c10.6,7.6,22.5,11.8,34.6,12.6c0.1,0.1,0.3,0.1,0.4,0.2c33.3,17.1,63.1,39.2,94.7,70.8l31.2,30.5
		L10.2,440.4C3.4,447.2,0,456.6,0,465.9c0,9.4,3.4,17.9,10.2,24.7l11.9,11.9c6.8,6,15.4,9.4,23.9,9.4c8.5,0,17.9-3.4,24.7-10.2
		l181.1-202.7l52.6,52.6c17.9,17.9,40.9,49.4,71.6,95.4c1.1,16.4,7.8,31.7,19.7,43.6c12.8,12.8,29.9,19.6,47.8,19.6h6.8
		c2.6,0,5.1-1.7,6.8-4.3c1.7-2.6,1.7-6,0-8.5l-24.7-41.8c6-11.1,17.1-17.9,29.9-17.1l23.9,40.9c0.9,2.6,4.3,4.3,6.8,4.3
		c3.4-0.9,6-1.7,7.7-4.3C521.1,448.9,512.6,407.9,482.7,386.6 M288.3,74.5c-27.3-26.4-47.8-35-70.8-37.5
		c48.6-15.4,84.4-14.5,120.3,1.7C358.2,47.2,365,54,383,71.9l30.7,30.7c6.8,6.8,11.1,15.4,11.9,23.9c0.9,4.3,0.9,7.7,0.9,10.2
		c0,9.4,0.9,16.2,11.1,26.4c3.4,3.4,8.5,5.1,12.8,5.1c5.1,0,9.4-1.7,11.9-5.1l29.9,29.9c1.7,1.7,2.6,3.4,2.6,6c0,2.6-0.9,4.3-2.6,6
		l-60.6,60.6c-3.4,3.4-8.5,3.4-11.9,0l-29.9-29.9c3.4-2.6,5.1-6.8,4.3-11.9c0-4.3-1.7-9.4-5.1-12.8c-10.2-10.2-17.1-11.1-26.4-11.1
		c-2.6,0-6,0-10.2-0.9c-9.4-0.9-17.1-5.1-23.9-11.9l-36.7-36.7C310.5,127.3,308.8,94.9,288.3,74.5 M20.5,54l17.9,30.7
		c1.7,2.6,4.3,4.3,6.8,4.3h4.3c19.6,0.9,37.5-9.4,46.1-26.4l1.7-4.3c1.7-2.6,1.7-5.1,0-7.7L78.5,18.2c10.2,1.7,19.6,6.8,27.3,14.5
		c8.8,9.5,14.4,21.6,14.8,34.5c-0.2,0.7-0.3,1.4-0.3,2.2c0,4-0.5,7.8-1.4,11.5c-3.2,12.4-10.9,23.1-21.7,30.3
		c-17.1,11.1-40.1,11.1-57.1-0.9C22.2,97.5,14.5,74.5,20.5,54 M172.3,195.6c-25.6-26.4-51.2-46.9-78.5-63.1
		c4.3-1.7,9.4-4.3,13.6-6.8c12.8-8.5,21.3-19.6,26.4-33.3c16.2,27.3,36.7,52.9,62.3,78.5l29.3,29.3l-23,25.6L172.3,195.6z M58.9,489
		c-6.8,6.8-17.9,7.7-24.7,0.9l-11.9-11.1c-3.4-3.4-5.1-7.7-5.1-11.9c0-5.1,1.7-9.4,6-13.6l4.8-5.4L40.1,460c1.7,1.7,3.4,2.6,6,2.6
		c2.6,0,4.3-0.9,6-2.6c3.4-3.4,3.4-8.5,0-11.9l-12.9-12.9l11.3-12.6L64,436.1c1.7,1.7,3.4,2.6,6,2.6c2.6,0,4.3-0.9,6-2.6
		c3.4-3.4,3.4-8.5,0-11.9l-14.2-14.2l219.4-245.5l35.8,35.8l-35.2,39.4c-1,0.4-1.9,1.1-2.8,2L244.8,280c-1,1-1.7,2.1-2.1,3.3
		L58.9,489z M263.6,286l23.3-26.1L342,315c15.4,16.2,41.8,36.7,80.2,62.3c-5.1,1.7-10.2,4.3-15.4,7.7c-10.6,6.6-18.1,15.8-23.3,25.9
		c-0.1,0.1-0.1,0.3-0.2,0.4c-0.3,0.6-0.6,1.2-0.9,1.8c-0.4,0.9-0.8,1.8-1.2,2.7c-0.3,0.6-0.5,1.2-0.8,1.8c0,0.1-0.1,0.2-0.1,0.3
		c-0.3,0.7-0.5,1.3-0.8,2c-4.8-7.1-9.5-13.8-14-20.1l11.4-11.4c3.4-3.4,3.4-8.5,0-11.9c-3.4-3.4-8.5-3.4-11.9,0l-9.5,9.5
		c-3.5-4.8-7-9.3-10.3-13.6l7.8-7.8c3.4-3.4,3.4-8.5,0-11.9c-3.4-3.4-8.5-3.4-11.9,0l-6.5,6.5c-6.3-7.6-12-14-17.4-19.3L263.6,286z
		 M492.1,456.6l-17.9-30.7c-1.7-2.6-4.3-4.3-6.8-4.3h-4.3c-19.6-1.7-37.5,9.4-46.1,26.4l-1.7,4.3c-1.7,2.6-1.7,5.1,0,7.7l18.8,32.4
		c-10.2-1.7-19.6-6.8-27.3-14.5c-8.6-9.3-14.2-21.1-14.7-33.8c0.1-0.6,0.2-1.3,0.2-2c0-10.8,3.4-20.9,9.4-29.5
		c3.7-5.1,8.3-9.6,13.6-13.2c8.5-6,17.9-8.5,28.1-8.5c10.2,0,20.5,3.4,29,9.4C490.4,413.1,498.1,436.1,492.1,456.6"/>
</g>
</svg>
