<?xml version="1.0" encoding="utf-8"?>
<!-- Generator: Adobe Illustrator 21.0.2, SVG Export Plug-In . SVG Version: 6.00 Build 0)  -->
<!DOCTYPE svg PUBLIC "-//W3C//DTD SVG 1.1//EN" "http://www.w3.org/Graphics/SVG/1.1/DTD/svg11.dtd">
<svg version="1.1" id="Layer_1" xmlns="http://www.w3.org/2000/svg" xmlns:xlink="http://www.w3.org/1999/xlink" x="0px" y="0px"
	 viewBox="0 0 134.5 100.1" style="enable-background:new 0 0 134.5 100.1;" xml:space="preserve">
<style type="text/css">
	.st0{fill:#FFFFFF;}
</style>
<g>
	<path class="st0" d="M19.9,84.9V61.7H13c-5.2,0-9.5-4.3-9.5-9.5V13.7c0-5.2,4.3-9.5,9.5-9.5h61.4c5.2,0,9.5,4.3,9.5,9.5v38.5
		c0,5.2-4.3,9.5-9.5,9.5H38.7L19.9,84.9z M13,9.2c-2.5,0-4.5,2-4.5,4.5v38.5c0,2.5,2,4.5,4.5,4.5h11.9v14.1l11.4-14.1h38.1
		c2.5,0,4.5-2,4.5-4.5V13.7c0-2.5-2-4.5-4.5-4.5H13z"/>
	<path class="st0" d="M114.6,100.4L95.8,77.3H60.1c-5.2,0-9.5-4.3-9.5-9.5V29.3c0-5.2,4.3-9.5,9.5-9.5h61.4c5.2,0,9.5,4.3,9.5,9.5
		v38.5c0,5.2-4.3,9.5-9.5,9.5h-6.9V100.4z M60.1,24.8c-2.5,0-4.5,2-4.5,4.5v38.5c0,2.5,2,4.5,4.5,4.5h38.1l11.4,14.1V72.3h11.9
		c2.5,0,4.5-2,4.5-4.5V29.3c0-2.5-2-4.5-4.5-4.5H60.1z"/>
</g>
</svg>
