<?xml version="1.0" encoding="utf-8"?>
<!-- Generator: Adobe Illustrator 25.3.1, SVG Export Plug-In . SVG Version: 6.00 Build 0)  -->
<svg version="1.1" id="Layer_1" xmlns="http://www.w3.org/2000/svg" xmlns:xlink="http://www.w3.org/1999/xlink" x="0px" y="0px"
	 viewBox="0 0 355.1 79.5" style="enable-background:new 0 0 355.1 79.5;" xml:space="preserve">
<style type="text/css">
	.st0{fill:#595A5C;stroke:#595A5C;stroke-miterlimit:10;}
	.st1{fill:#EC7700;}
	.st2{fill:#B12028;}
	.st3{enable-background:new    ;}
	.st4{fill:#8E2A2A;}
</style>
<g>
	<path class="st0" d="M22.6,72.2h-13c-1.9,0-3.3-0.3-4-0.8S4.5,70,4.5,68.7v-8.9c0-1.3,0.4-2.2,1.1-2.7c0.8-0.5,2.1-0.8,4-0.8h13
		v2.4h-13c-1.2,0-1.8,0.4-1.8,1.1v8.9c0,0.4,0.2,0.7,0.5,0.9c0.3,0.2,0.7,0.2,1.4,0.2h13V72.2z"/>
	<path class="st0" d="M41.9,72.2h-9.6c-1.9,0-3.3-0.3-4-0.8s-1.1-1.4-1.1-2.7V56.3h3.3v12.4c0,0.4,0.2,0.7,0.5,0.9
		c0.3,0.2,0.7,0.2,1.4,0.2h9.6V72.2z"/>
	<path class="st0" d="M64.4,69.8l0,2.4H50c-1.9,0-3.3-0.2-4-0.7c-0.8-0.5-1.2-1.4-1.2-2.7v-9c0-1.3,0.4-2.2,1.1-2.7
		c0.7-0.5,2.1-0.8,4-0.8h14.4v2.4H50c-1.2,0-1.8,0.4-1.8,1.1v3h15.6l0,2.4H48.1v3.6c0,0.4,0.2,0.7,0.6,0.9c0.3,0.1,0.7,0.1,1.3,0.1
		H64.4z"/>
	<path class="st0" d="M92.9,72.2h-4.2l-3.2-4.7H73.8l-3.1,4.7h-3.8L77,57.5c0.4-0.6,0.7-0.9,1-1.1c0.5-0.3,1-0.5,1.8-0.5
		c1.1,0,2.1,0.5,2.8,1.6L92.9,72.2z M83.9,65.4l-4.5-6.8L75,65.4H83.9z"/>
	<path class="st0" d="M114.9,69.9c0,0.8-0.3,1.4-1,1.8c-0.6,0.4-1.3,0.6-2.1,0.6c-1.1,0-1.9-0.3-2.5-1L98.5,59v13.2h-3V58.6
		c0-0.7,0.3-1.3,1-1.8c0.6-0.5,1.3-0.7,2.2-0.7c1,0,1.8,0.3,2.4,1l10.8,12.1v-13h3V69.9z"/>
	<path class="st0" d="M149.4,69.8l0,2.4H135c-1.9,0-3.3-0.2-4-0.7c-0.8-0.5-1.2-1.4-1.2-2.7v-9c0-1.3,0.4-2.2,1.1-2.7
		c0.7-0.5,2.1-0.8,4-0.8h14.4v2.4H135c-1.2,0-1.8,0.4-1.8,1.1v3h15.6l0,2.4h-15.5v3.6c0,0.4,0.2,0.7,0.6,0.9
		c0.3,0.1,0.7,0.1,1.3,0.1H149.4z"/>
	<path class="st0" d="M172.9,69.9c0,0.8-0.3,1.4-1,1.8c-0.6,0.4-1.3,0.6-2.1,0.6c-1.1,0-1.9-0.3-2.5-1L156.5,59v13.2h-3V58.6
		c0-0.7,0.3-1.3,1-1.8c0.6-0.5,1.3-0.7,2.2-0.7c1,0,1.8,0.3,2.4,1l10.8,12.1v-13h3V69.9z"/>
	<path class="st0" d="M196.7,69.8l0,2.4h-14.4c-1.9,0-3.3-0.2-4-0.7c-0.8-0.5-1.2-1.4-1.2-2.7v-9c0-1.3,0.4-2.2,1.1-2.7
		c0.7-0.5,2.1-0.8,4-0.8h14.4v2.4h-14.4c-1.2,0-1.8,0.4-1.8,1.1v3h15.6l0,2.4h-15.5v3.6c0,0.4,0.2,0.7,0.6,0.9
		c0.3,0.1,0.7,0.1,1.3,0.1H196.7z"/>
	<path class="st0" d="M219.8,72.2h-4.9l-7.6-6.2c-0.4-0.4-0.7-0.8-0.7-1.3c0-0.4,0.1-0.7,0.4-1c0.3-0.3,0.7-0.4,1.2-0.4h5.7
		c0.7,0,1.2-0.1,1.4-0.2c0.2-0.1,0.4-0.4,0.4-0.9v-2.4c0-0.7-0.6-1.1-1.9-1.1h-9.9v13.5h-3.3V56.3H214c1.9,0,3.2,0.3,4,0.8
		c0.8,0.5,1.2,1.4,1.2,2.7c0,0.7,0,1.5,0,2.4c0,1.3-0.4,2.2-1.3,2.6c-0.8,0.5-2.1,0.7-3.9,0.7h-2.8L219.8,72.2z"/>
	<path class="st0" d="M244.9,68.8c0,1.2-0.4,2-1.2,2.6c-0.8,0.6-2.1,0.8-3.9,0.8h-10.5c-1.9,0-3.2-0.3-4-0.8
		c-0.7-0.5-1.1-1.4-1.1-2.7v-8.9c0-1.2,0.4-2.1,1.2-2.7s2.1-0.8,4-0.8H244v2.4h-14.6c-1.2,0-1.8,0.4-1.8,1.1v8.9
		c0,0.5,0.2,0.8,0.5,1c0.2,0.1,0.7,0.1,1.3,0.1h10.4c0.6,0,1-0.1,1.2-0.2c0.4-0.1,0.5-0.5,0.5-0.9v-3.4h-8.7v-2.5h12.1V68.8z"/>
	<path class="st0" d="M268.5,56.3l-8.8,8.7v7.2h-3.3V65l-8.5-8.7h4.4l6,6.4l6.1-6.4H268.5z"/>
</g>
<g>
	<g>
		<g>
			<path class="st1" d="M277.5,38.9c0-20.3,16.5-36.8,36.8-36.8c20.3,0,36.8,16.5,36.8,36.8c0,20.3-16.5,36.8-36.8,36.8
				C294,75.7,277.5,59.2,277.5,38.9"/>
		</g>
	</g>
	<g>
		<g>
			<g>
				<path class="st2" d="M310.4,64.4c-8.3-0.3-15.6-2.9-21.5-7.8c-1.4-1.1-2.7-2.6-2.4-4.8c0.3-1.8,1.3-3.1,3-3.8
					c0.6-0.2,1.2-0.3,1.8-0.3c1.1,0,2.1,0.4,3.1,1.2c4.6,3.8,9.4,6.1,14.6,7c1.2,0.2,2.4,0.3,3.7,0.3c7.5,0,14.6-3.6,18.1-9.1
					c3.5-5.5,3.2-12.6-0.8-17.7c-3-3.8-6.7-5.7-11.1-5.7c-0.2,0-0.4,0-0.5,0c-0.7,0-1.5,0.2-2.2,0.5c-0.3,0.1-0.6,0.2-0.9,0.3
					c-0.3,0.1-0.5,0.2-0.8,0.3l-0.2,0.1l0,0l0.1-0.1c0.1-0.2,0.2-0.4,0.3-0.5c2.8-3.5,6.9-5.5,11.2-5.5c3,0,6,1,8.5,2.9
					c3.4,2.5,5.6,6.1,6.7,10.6c1.7,7.6,0.1,14.8-5,21.4c-4.3,5.6-10.4,9.1-18,10.3c-2.1,0.3-4.4,0.6-6.7,0.6
					C310.9,64.4,310.7,64.4,310.4,64.4"/>
			</g>
		</g>
		<g>
			<g>
				<path class="st2" d="M339,63.7c-0.5,0-0.9-0.1-1.4-0.2c-1.5-0.5-2.7-2-2.9-3.6c-0.1-1.5,0.3-2.7,1.4-4c4.9-6,7.2-12.1,7.1-18.7
					c-0.2-6.7-2.7-12.1-7.4-16.2c-2.9-2.5-6.2-3.8-9.7-3.8l-0.2,0c-7,0.1-12.6,4.1-14.7,10.4c-0.9,2.8-0.8,5.4,0.2,7.8
					c0.1,0.2,0.2,0.4,0.3,0.6l0.1,0.2l-0.1,0.1c-0.1-0.1-0.3-0.2-0.4-0.2c-0.4-0.2-0.8-0.5-1.1-0.8c-3.1-2.6-4.8-6.5-4.8-10.6
					c0.1-4.2,2-8.1,5.4-10.8c4-3.3,8.6-4.9,13.5-4.9c2.7,0,5.6,0.5,8.6,1.5c8.7,2.9,14.1,9.3,16.6,19.3c2.9,12,0.3,22.9-7.7,32.6
					C341.1,63.2,340.1,63.7,339,63.7"/>
			</g>
		</g>
		<g>
			<g>
				<path class="st2" d="M312.4,54.6c-3.5,0-7-0.8-10.3-2.3c-9.1-4.3-14.3-11.6-15.9-22.3c-0.8-5.2-0.5-10.2,0.9-14.9
					c0.2-0.7,0.6-1.4,1-1.9c3.8-3.9,8.5-7,14.1-9c0.1,0,0.1,0,0.2,0l0,0c0.2,1.2-0.1,2.2-0.9,3.2c-4.3,5.1-6.6,10.2-7.2,15.6
					c-0.9,9.2,2.2,16.2,9.4,21c2.3,1.5,5,2.4,7.9,2.4c6,0,11.4-3.4,13.7-8.6c1.6-3.4,1.7-6.5,0.5-9.4c-0.1-0.3-0.2-0.5-0.2-0.8
					l0-0.2c1.4,0.4,2.3,1.5,3.2,2.6c2,2.4,2.9,5.3,3,8.8c0,3.4-0.9,6.3-3,8.8c-2.7,3.3-6.2,5.5-10.5,6.4
					C316.2,54.4,314.3,54.6,312.4,54.6"/>
			</g>
		</g>
		<g>
			<g>
				<path class="st2" d="M311.4,44.7c-3.9,0-7.3-1.4-10-4.2c-3.3-3.4-5.2-7.4-5.5-12.2c-0.7-10.8,3.8-19.2,13.5-25.2
					c0.9-0.5,2.2-0.9,3.4-0.9c0.5,0,0.9,0,1.4,0c8.7,0,16.5,2.8,23.4,8.4c0.2,0.2,0.4,0.3,0.6,0.5c0,0-2-0.9-2.8-1.3
					c-3.6-1.7-7.1-2.6-10.5-2.6c-0.6,0-1.2,0-1.8,0.1c-7.4,0.7-13,3.7-16.5,9c-3.5,5.2-3.5,10.9-0.2,16.4c2.9,4.7,6.9,7,12.1,7
					l0.1,0c0.9,0,1.8-0.3,2.7-0.5c0.3-0.1,0.7-0.2,1-0.3c0.2-0.1,0.4-0.2,0.6-0.3l0.1-0.1l0,0c0,0.1-0.1,0.2-0.1,0.3
					c-0.1,0.3-0.3,0.6-0.5,0.8c-2.8,3.3-6.3,5-10.7,5.1L311.4,44.7z"/>
			</g>
		</g>
	</g>
</g>
<g>
	<g class="st3">
		<g>
			<g>
				<g>
					<polygon class="st4" points="94,48 97.3,48 103.6,48 100.2,48 					"/>
				</g>
			</g>
		</g>
		<g>
			<g>
				<g>
					<polygon class="st4" points="114.5,32.2 117.8,32.2 124.5,32.2 121.1,32.2 					"/>
				</g>
			</g>
		</g>
		<g>
			<g>
				<g>
					<polygon class="st4" points="123.1,48 126.5,48 135.6,48 132.2,48 					"/>
				</g>
			</g>
		</g>
		<path class="st4" d="M119.5,32.8h1.6h3.4c1,0,1.9,0,2.7-0.1c1.7-0.1,3.1-0.4,4.2-0.8c0.6-0.2,1-0.5,1.4-0.7c0,0,0,0,0,0
			c0.3-0.2,0.6-0.4,0.8-0.7c0.1-0.1,0.1-0.1,0.2-0.2c0.2-0.2,0.4-0.5,0.6-0.8c0,0,0,0,0.1-0.1c0,0,0,0,0,0c0.2-0.3,0.3-0.6,0.4-0.9
			c0,0,0,0,0,0c0-0.1,0-0.2,0.1-0.2c0.1-0.2,0.2-0.4,0.2-0.7c0,0,0-0.1,0-0.1c0-0.1,0-0.2,0-0.2c0.1-0.3,0.1-0.6,0.1-0.9
			c0-0.1,0-0.1,0-0.2c0-0.1,0-0.1,0-0.2c0-0.4,0.1-0.9,0.1-1.4c0-1,0-2,0-2.9c0-0.9,0-1.9,0-2.8c0-0.2,0-0.3,0-0.5
			c0-0.2,0-0.4,0-0.7c0,0,0-0.1,0-0.1c0-0.4-0.1-0.8-0.1-1.1c0-0.1-0.1-0.3-0.1-0.4c0-0.1-0.1-0.3-0.1-0.4c0-0.2-0.1-0.3-0.2-0.5
			c0-0.1-0.1-0.2-0.1-0.3c0,0,0,0,0-0.1c-0.1-0.1-0.1-0.3-0.2-0.4c-0.1-0.1-0.1-0.2-0.2-0.3c-0.1-0.1-0.2-0.3-0.3-0.4
			c-0.1-0.1-0.1-0.2-0.2-0.3c-0.1-0.1-0.2-0.3-0.3-0.4c-0.1-0.1-0.1-0.1-0.2-0.2c-0.2-0.2-0.4-0.4-0.6-0.5c0,0-0.1,0-0.1-0.1
			c-0.2-0.1-0.4-0.3-0.6-0.4c0,0-0.1,0-0.1-0.1c-0.1-0.1-0.3-0.1-0.4-0.2c-0.4-0.2-0.8-0.4-1.3-0.5c-0.6-0.2-1.2-0.3-1.9-0.4
			c-0.1,0-0.2,0-0.3,0c-0.3,0-0.6-0.1-0.9-0.1c-0.1,0-0.3,0-0.4,0c-0.4,0-0.9-0.1-1.4-0.1c0,0,0,0,0,0c-0.3,0-0.7,0-1.1,0h-3.4
			c0,0,0,0,0,0h0c0,0,0,0,0,0H96.7h-3.4v38.3h10.9v-32h16.9c3.6,0,3.6,1.7,3.6,2.3v5.6c-0.1,0.9-0.3,1.6-0.8,1.8
			c-0.3,0.2-1,0.5-2.8,0.5h-8.6h-3.4c-1.1,0-2,0.4-2.7,1.1c-0.7,0.7-1,1.6-1,2.6c0,1.2,0.5,2.3,1.5,3.2l15.8,14.9h11.1h0h3.4
			L119.5,32.8z"/>
	</g>
</g>
<g>
	<g>
		<g>
			<path class="st2" d="M121.1,10.9c3.9,0,6.6,0.6,8.1,1.8c1.5,1.2,2.3,3.3,2.3,6.1c0,1.8,0,3.7,0,5.7c0,2.9-0.8,4.9-2.5,6
				c-1.5,1-4.2,1.6-8,1.6h-6.7L132.2,48h-9.2l-15.6-14.7c-0.9-0.8-1.3-1.7-1.3-2.7c0-0.8,0.3-1.5,0.8-2.1c0.5-0.6,1.3-0.9,2.2-0.9
				h11.9c1.6,0,2.6-0.2,3.2-0.6c0.6-0.4,0.9-1.2,1-2.3V19c0-1.9-1.4-2.9-4.2-2.9h-20.9v32H94V10.9H121.1z"/>
		</g>
	</g>
</g>
<path class="st4" d="M49.2,36.8c0-0.1,0-0.3,0-0.4c0-0.1,0-0.2,0-0.2c0-0.3-0.1-0.6-0.1-0.9c0,0,0,0,0-0.1c0-0.1,0-0.2-0.1-0.3
	c-0.1-0.2-0.1-0.5-0.2-0.7c0-0.1-0.1-0.2-0.1-0.4c0-0.1-0.1-0.3-0.1-0.4c0-0.1-0.1-0.1-0.1-0.2c-0.1-0.2-0.2-0.4-0.3-0.6
	c-0.1-0.1-0.1-0.3-0.2-0.4c-0.1-0.2-0.2-0.4-0.4-0.6c-0.1-0.1-0.2-0.3-0.3-0.4c-0.2-0.2-0.3-0.4-0.5-0.6c-0.1-0.1-0.2-0.2-0.3-0.3
	c-0.3-0.3-0.6-0.6-0.9-0.9c-0.3-0.3-0.6-0.6-1-0.8c0,0,0,0,0,0c-0.3-0.2-0.7-0.5-1-0.7c-0.1,0-0.1-0.1-0.2-0.1
	c-0.3-0.2-0.6-0.3-0.8-0.5h0c-0.6-0.3-1.2-0.5-1.8-0.7h0c0,0,0,0,0,0h0c-0.6-0.2-1.2-0.3-1.9-0.4c0,0-0.1,0-0.1,0
	c-0.3-0.1-0.6-0.1-1-0.1c-0.1,0-0.1,0-0.2,0c-0.3,0-0.6,0-0.9-0.1c0,0-0.1,0-0.1,0c-0.2,0-0.4,0-0.6,0h-3.4c0.3,0,0.7,0,1,0
	c0,0,0.1,0,0.1,0c-0.4,0-0.7,0-1.1,0c-0.1,0-0.3,0-0.4,0c-2,0.1-4,0.1-6.1,0.1c-1,0-2.1,0-3.1,0c-1.1,0-2.3,0-3.4-0.1
	c-0.2,0-0.4,0-0.5,0c-0.2,0-0.5,0-0.7-0.1c-0.3,0-0.5-0.1-0.7-0.2c-0.1,0-0.1,0-0.2,0c-0.3-0.1-0.6-0.2-0.8-0.3c0,0,0,0,0,0
	c-0.3-0.1-0.5-0.3-0.7-0.4c-0.1-0.1-0.1-0.1-0.2-0.2c0,0-0.1-0.1-0.1-0.1c-0.1-0.1-0.1-0.1-0.2-0.2c0-0.1-0.1-0.1-0.1-0.2
	c-0.1-0.1-0.1-0.2-0.2-0.2c0-0.1-0.1-0.1-0.1-0.2c0-0.1-0.1-0.2-0.1-0.3c0-0.1,0-0.1-0.1-0.2c-0.1-0.3-0.2-0.5-0.2-0.8
	c0,0,0-0.1,0-0.1c0-0.3-0.1-0.6-0.1-0.9c0-0.1,0-0.2,0-0.3c0-0.3,0-0.5,0.1-0.8c0-0.1,0-0.1,0-0.2c0.1-0.2,0.1-0.5,0.2-0.7
	c0,0,0,0,0,0c0.1-0.2,0.2-0.5,0.4-0.7c0,0,0-0.1,0.1-0.1c0.1-0.2,0.3-0.4,0.5-0.6c1-1,2.4-1.5,4.1-1.5h23.5h3.3v-6.4l-30.2,0
	c-3.8,0-7,1.3-9.3,3.8c-2.1,2.1-3.1,4.6-3.1,7.3c0,3.1,0.9,5.7,2.8,7.7c2.1,2.3,5.2,3.5,9.3,3.5h16.2c1.9,0,3.5,0.5,4.5,1.4
	c1.1,1,1.6,2.1,1.6,3.5c0,1.4-0.6,2.5-1.7,3.4c-1.2,0.9-2.7,1.3-4.7,1.3H7.5H4.2v6.4h3.4l28-0.1c4,0,7.3-1.1,9.8-3.2
	c0.3-0.2,0.5-0.5,0.8-0.8c0.1-0.1,0.1-0.2,0.2-0.2c0.2-0.2,0.3-0.4,0.5-0.6c0.1-0.1,0.1-0.2,0.2-0.3c0.2-0.2,0.3-0.4,0.5-0.7
	c0-0.1,0.1-0.1,0.1-0.2c0,0,0,0,0,0c0.2-0.3,0.3-0.6,0.5-0.8c0-0.1,0.1-0.2,0.1-0.2c0.1-0.1,0.1-0.3,0.2-0.4c0-0.1,0.1-0.2,0.1-0.3
	c0-0.1,0.1-0.1,0.1-0.2c0.1-0.3,0.2-0.6,0.3-0.9c0,0,0-0.1,0-0.1c0,0,0-0.1,0-0.2c0.1-0.3,0.1-0.6,0.2-0.9c0-0.1,0-0.1,0-0.2
	c0,0,0-0.1,0-0.1c0-0.3,0.1-0.7,0.1-1C49.2,37.2,49.2,37,49.2,36.8z M35,26c0.1,0,0.2,0,0.2,0c0,0,0,0,0.1,0c0,0,0,0,0,0
	C35.2,26.1,35.1,26.1,35,26z"/>
<g>
	<g>
		<g>
			<path class="st2" d="M42.9,10.9l0,5.1H16.6c-1.9,0-3.5,0.6-4.6,1.7c-0.9,1-1.4,2.1-1.4,3.5c0,3.5,2,5.3,5.8,5.4
				c2.8,0.1,5.6,0.1,8.2,0.1c2.7,0,5.3,0,7.7-0.1c0.2,0,0.4,0,0.5,0c3.6,0,6.6,1.1,8.9,3.3c2.3,2.1,3.4,4.6,3.3,7.5
				c-0.1,3-1.3,5.6-3.6,7.6c-2.4,2-5.5,3.1-9.4,3.1L4.8,48l0-5.2h27.4c2.1,0,3.8-0.5,5-1.4c1.3-1,2-2.3,2-3.9c0-1.6-0.6-2.9-1.8-4
				c-1.2-1.1-2.9-1.6-5-1.6H16.2c-3.9,0-6.8-1.1-8.8-3.3c-1.7-1.9-2.6-4.3-2.6-7.3c0-2.6,1-4.9,2.9-6.9c2.2-2.4,5.2-3.5,8.8-3.5
				H42.9z"/>
		</g>
	</g>
</g>
<g>
	<g>
		<g>
			<path class="st4" d="M180.4,10.3v6.4h17.2v32h10.9v-32h16.9v-6.4H180.4z"/>
		</g>
	</g>
	<g>
		<g>
			<g>
				<polygon class="st2" points="221.4,10.9 221.4,16 204.5,16 204.5,48 198.2,48 198.2,16 181,16 181,10.9 				"/>
			</g>
		</g>
	</g>
</g>
<g>
	<g>
		<g>
			<path class="st4" d="M47.5,10.3v6.4h17.2v32h10.9v-32h16.9v-6.4H47.5z"/>
		</g>
	</g>
	<g>
		<g>
			<g>
				<polygon class="st2" points="88.6,10.9 88.6,16 71.6,16 71.6,48 65.4,48 65.4,16 48.2,16 48.2,10.9 				"/>
			</g>
		</g>
	</g>
</g>
<g>
	<g>
		<g>
			<g>
				<polygon class="st4" points="182.9,48 186.3,48 194.2,48 190.9,48 				"/>
			</g>
		</g>
	</g>
	<path class="st4" d="M174.6,13.1C174.6,13.1,174.6,13.1,174.6,13.1c-0.2-0.4-0.4-0.7-0.7-1c-0.1-0.1-0.1-0.1-0.2-0.2
		c-0.2-0.3-0.4-0.5-0.7-0.8c0,0,0,0-0.1-0.1c-0.2-0.2-0.5-0.4-0.7-0.6c-0.1,0-0.1-0.1-0.2-0.1c0,0,0,0,0,0c-0.3-0.2-0.6-0.4-0.9-0.6
		c0,0,0,0-0.1,0c-0.2-0.1-0.3-0.1-0.5-0.2c-0.1,0-0.2-0.1-0.3-0.1c0,0,0,0-0.1,0c-0.1,0-0.2-0.1-0.3-0.1c-0.1,0-0.3-0.1-0.4-0.1
		c0,0-0.1,0-0.1,0c-0.1,0-0.3,0-0.4,0c-0.1,0-0.3,0-0.4,0c-0.1,0-0.1,0-0.2,0h-3.4c0.1,0,0.2,0,0.3,0c-0.1,0-0.2,0-0.3,0
		c-1.6,0-2.9,0.4-3.8,1.2c-0.7,0.5-1.4,1.4-2.2,2.8l-21.4,35.4h8.7h3.4l6.5-11.1h20.7l6.6,11.1h9.5h3.4L174.6,13.1z M159.6,31.8
		l7.1-12.2l7.1,12.2H159.6z"/>
	<g>
		<g>
			<g>
				<path class="st2" d="M170.7,13.4L191.9,48h-8l-6.6-11.1h-24.8L146,48h-7.2l20.8-34.5c0.8-1.3,1.5-2.2,2.1-2.6
					c0.9-0.7,2-1.1,3.5-1.1C167.4,9.8,169.3,11,170.7,13.4z M155.1,32.5h19.7l-9.9-17L155.1,32.5"/>
			</g>
		</g>
	</g>
</g>
<g>
	<g>
		<g>
			<g>
				<polygon class="st4" points="255.1,48 258.5,48 266.4,48 263.1,48 				"/>
			</g>
		</g>
	</g>
	<path class="st4" d="M246.9,13.1C246.8,13.1,246.8,13.1,246.9,13.1c-0.2-0.4-0.4-0.7-0.7-1c-0.1-0.1-0.1-0.1-0.2-0.2
		c-0.2-0.3-0.4-0.5-0.7-0.8c0,0,0,0-0.1-0.1c-0.2-0.2-0.5-0.4-0.7-0.6c-0.1,0-0.1-0.1-0.2-0.1c0,0,0,0,0,0c-0.3-0.2-0.6-0.4-0.9-0.6
		c0,0,0,0-0.1,0c-0.2-0.1-0.3-0.1-0.5-0.2c-0.1,0-0.2-0.1-0.3-0.1c0,0,0,0-0.1,0c-0.1,0-0.2-0.1-0.3-0.1c-0.1,0-0.3-0.1-0.4-0.1
		c0,0-0.1,0-0.1,0c-0.1,0-0.3,0-0.4,0c-0.1,0-0.3,0-0.4,0c-0.1,0-0.1,0-0.2,0h-3.4c0.1,0,0.2,0,0.3,0c-0.1,0-0.2,0-0.3,0
		c-1.6,0-2.9,0.4-3.8,1.2c-0.7,0.5-1.4,1.4-2.2,2.8l-21.4,35.4h8.7h3.4l6.5-11.1h20.7l6.6,11.1h9.5h3.4L246.9,13.1z M231.8,31.8
		l7.1-12.2l7.1,12.2H231.8z"/>
	<g>
		<g>
			<g>
				<path class="st2" d="M243,13.4L264.1,48h-8l-6.6-11.1h-24.8L218.2,48h-7.2l20.8-34.5c0.8-1.3,1.5-2.2,2.1-2.6
					c0.9-0.7,2-1.1,3.5-1.1C239.7,9.8,241.5,11,243,13.4z M227.3,32.5h19.7l-9.9-17L227.3,32.5"/>
			</g>
		</g>
	</g>
</g>
</svg>
